/* XPM */
static char *result[] = {
/* columns rows colors chars-per-pixel */
"64 64 112 2 ",
"   c #5F3529",
".  c #63362A",
"X  c #66382C",
"o  c #6B3C2E",
"O  c #6E3D30",
"+  c #723F31",
"@  c #674035",
"#  c #6D4135",
"$  c #6F493E",
"%  c #754132",
"&  c #7C4536",
"*  c #7F4837",
"=  c #72473B",
"-  c #7F4638",
";  c #74493D",
":  c #7C4A3D",
">  c #754C41",
",  c #794E42",
"<  c #7E5144",
"1  c #7A6C67",
"2  c #7E6F6A",
"3  c #7F706B",
"4  c #804737",
"5  c #824837",
"6  c #804738",
"7  c #844939",
"8  c #8B4D3C",
"9  c #904F3E",
"0  c #86503F",
"q  c #8E503F",
"w  c #93513F",
"e  c #814F41",
"r  c #845345",
"t  c #8C5445",
"y  c #865649",
"u  c #895749",
"i  c #87584B",
"p  c #8A594B",
"a  c #955341",
"s  c #9B5643",
"d  c #9D5946",
"f  c #905748",
"g  c #955949",
"h  c #9C5B4A",
"j  c #8B5F53",
"k  c #A35A46",
"l  c #A85E46",
"z  c #A55D49",
"x  c #AA5E4A",
"c  c #9D604F",
"v  c #8E6256",
"b  c #8E6459",
"n  c #916255",
"m  c #9D6252",
"M  c #926559",
"N  c #966A5E",
"B  c #9D6A5C",
"V  c #A6614E",
"C  c #AC614D",
"Z  c #B2634E",
"A  c #A26554",
"S  c #A56854",
"D  c #AD6A57",
"F  c #A36758",
"G  c #A46A59",
"H  c #B16551",
"J  c #B16C5A",
"K  c #80706B",
"L  c #9A7166",
"P  c #8A7A76",
"I  c #8C7D79",
"U  c #9D7C73",
"Y  c #977F78",
"T  c #9C7E78",
"R  c #A47164",
"E  c #AA7566",
"W  c #AF7768",
"Q  c #A6786C",
"!  c #A37E74",
"~  c #8E817C",
"^  c #9D8077",
"/  c #97827C",
"(  c #9B837C",
")  c #A38076",
"_  c #A1837B",
"`  c #9B8780",
"'  c #9E8A84",
"]  c #9F8D88",
"[  c #A18C86",
"{  c #AA8D85",
"}  c #A28E89",
"|  c #AA8F89",
" . c #B28E83",
".. c #AC9087",
"X. c #A3918B",
"o. c #AB928B",
"O. c #B1948B",
"+. c #A69692",
"@. c #AD9791",
"#. c #AD9A95",
"$. c #AF9E98",
"%. c #B39D96",
"&. c #B19E99",
"*. c #B4A29C",
"=. c #B8A49E",
"-. c #B5A6A1",
";. c #B8A6A1",
":. c #B6A8A3",
">. c #B9A9A5",
",. c #BEAEAA",
"<. c #BFB0AB",
"1. c #C5B5B0",
/* pixels */
"s s s s w w w w w k w k _ #.#.o.c s s s s s s d a a 9 a k k k k s s s d x x x k 8 8 9 f ..&.$...h s s d l k k k s s s s s s s W ",
"s s s s w w w w w s d d ..#.#.o.c s s s d s d d a e 8 a k k x k s s s s x x x x w 9 8 f o.$.$...h d s d k k l k s s s s s s s W ",
"s s s s w w w w k k s d [ #.#.o.c s s s d d s k a 9 e a k k k k s s s s x x x k w 8 8 t o.$.$.o.h s s s k l k l s s s s a k s W ",
"a a a a w 8 8 q w w w d { $.$.o.z k s k s a a a 8 8 8 9 a s s s a a a s d k k s 8 8 8 a o.$.$.o.h s s s s s k s s a a a a a 9 E ",
"4 - - - & * & - 7 8 7 8 { =.-.%.J x Z l 5 - - % + + O O O o o O & & & 4 & - & & 7 7 7 r ..$.$.o.h s s w 7 7 4 4 4 4 4 4 4 4 4 n ",
"& - & & & & & & 7 7 7 t ..=.=.*.J Z Z x 5 & - & + o O O X X X o & & & & + + + + 5 7 5 t o.$.$.o.h s d w 4 4 - - - 4 + 7 & & & j ",
"& & & & & & & - 7 8 7 8 ..;.=.*.J Z Z x * & & & o O O O o X X o & & & & & + & & 6 7 7 0 X.$.$.o.k d d w 5 4 - 4 - - - + - & & j ",
"& & & & * * - * 4 4 6 7 { =.*.%.D x C k 6 & - - + + + O o o o o & & & & & + & + 5 5 5 0 X.$.$...g w w w 7 7 4 4 - % 7 + 4 4 4 c ",
"& & & & 8 8 q 7 + O o O ` &.&.@.V s s s 5 * - - & & 4 & + + + + & & & & & & & & & & & e ..$.$...0 7 7 7 w 8 w 8 - - - * 8 9 8 B ",
"& & & & 8 8 8 8 O o O # ` &.&.@.c k s w 5 - 4 4 & & & 4 + + + + + 7 4 & & & & & & & & 7 X.$.$.X.0 7 5 7 w 9 t q 4 % * 4 8 8 8 R ",
"& & - - 8 8 q 7 O o o O ( &.$.o.c w d a 4 * - 4 & & 4 + + + + + + & + 7 & & & & & & % e X.$.$.o.0 5 5 7 8 w w 0 - & % 4 8 8 9 R ",
": 0 : 0 t q f f ; = = = [ &.&.#.B h h h r 7 e e e e e e , 7 ; > e e e e e e e e e e e y o.&.$.o.u r r t f f f f e e e e f f f Q ",
"` ` ` ` ( ( ' ( / / / / #.&.&.#.[ ( ( ( ( ( ( ( T ( ( ( Y / / / ! ` ( ( ` ` ` ` ( ( ( ` &.*.*.$.( ( ( ( ( ( ( ( Y ` / ( [ [ [ #.",
"} } } } ] ] ] ] ' ' ' ' #.&.*.&.[ ' [ ' ' ' ' ' ' ' ] ' ' ' ` ' [ [ ' ] ' ] ] ] ' ' ' [ *.=.=.&.} [ ' ' ' ' ] ' ' ` ` ' } } } #.",
"] ] } ] ] ] ] ] ' ' ' ' #.*.$.#.[ ' ' [ ] ' ' ' [ ' ' ' ' ` ` ' ' ' ] ] [ [ } ] ' ' [ [ $.;.=.*.[ ] ' ' ' ' ] ` ' ' ' ' X.} } #.",
"( ^ ( / ( ^ ( ^ ^ / ^ ^ { ......_ ^ ^ ^ Y ^ ^ T ^ T T T ' ' ] [ T ! T ! ! ( _ ! T T T _ ..o.O...^ ^ ^ ^ T T T T Y Y T ( X.X.+.$.",
"0 0 q q w h d d V w V V d c V d d d d d w w w g s s s A @.#.$.{ A z x k x V x k h d k h d h d V h d d d d h d h d d d B @.#.#.;.",
"q q 8 8 w d s s w k w w k w k w d w V w w w w w s s s h @.#.&...k z z k k k k k k k d d w k w w s s s s k w w d d w s m @.#.#.<.",
"7 8 8 8 w d s s k w V w w k w k w w k w w w w w a s s c o.&.$...x k k k k x l k d k k k k d w d w d s s w k k w d w k A @.#.#.,.",
"q q 8 8 w w w w w k w k w w w w w w q w 8 8 8 8 t a a h @.&.$.{ k z k k s s s w w w w w w w w q w q q q w w w w w w w c @.&.#.,.",
"s s s s 0 & * * w l w w 5 & & & o o o O * * & & % & & e o.&.&.| h s s a 4 & & & % % + % & * & & % o % O & & & & - & - i #.&.&.,.",
"s s s s 5 * & & w w k w 5 * & & # o o o & & & & % % % e o.$.&...h s s a 4 & & & + + + + & & & & % o o O & & & & & & & i #.&.&.-.",
"s s s w 5 & & * w l k w 5 * & % o o o o & * & & & & & , X.&.&.{ h s s s 4 & & & + + + + % & & & # o o O & & & & & & & y #.&.&.;.",
"s s s s * & % & w w w w 5 % % % O o o o % % & % % & & < o.&.%.{ h s s s 4 & % & & % % % & & & & o % # % & & & & & & & i #.&.&.:.",
"s s s s %   . X 5 8 8 8 % % @ % & & & % X X o X + 4 + t @.*.=.O.x l l d % % o % 4 5 6 6 & % % % & & & % & & & & & & & y @.$.#.-.",
"s s d w # . . . 5 8 8 7 % # X % & & & % X . X X + 7 - r @.*.*.O.V k l d % o o % 5 7 7 5 & % % % & & & & & & & & & & & y @.#.#.,.",
"s s w d #     X 5 8 8 5 = # @ # & & & % X . . . + + + r o.=.*.O.C l l k % o o % 5 5 6 : % % % % % & & & & & & & & & & y @.#.#.,.",
"c c c c , $ $ ; u p f f < : ; < r r r 0 > = > > u t r j %.&.*.O.G S S A < , , , i i i < < < < r r y y r y < y i r r < b +.$.#.<.",
"' ( ' ( ' ( ( ' ( ( } ( ( ' / / ( ` ` ` ' ' ` ' [ [ ` ' &.&.&.#.[ ( [ ( ( ` ` ` / ` ` ` ' ( ' ( ` ( ' ( ( ( ' ( ' ( ' [ $.&.&.<.",
"' ] ( [ ' } } ( ( } ( X.' ] ] ] ' ' ` ' ] ] [ ' [ ` ' ] #.&.&.#.[ ' ' ' ' ' ] ' ` ' ` ' ' ' ' ' ' ' ' ] ' ' ' ' ' ' ' [ &.&.*.>.",
"' ' [ ' ' ' ' ' X.( ( ( ' / ] / ' ' ' ` [ [ [ ] ' ' ' [ &.&.&.#.] ' ( ] ' ' ` ] / ' ' ( ' ' ' ' ' ' ] ' _ ] ' ' ' ' ' X.*.=.&.;.",
"U U U U U U U U ^ ^ ^ ^ ' X.X.X.Y U U U U U U ! Q U U ! {  . . .Q U U U U U U U U U U ^ [ X.X._ ^ U U U U U U U ! ) ! ) ( _ _ X.",
"d k s z d s s s d s s d { #.&.o.h a a a s s s s k z z z Z H H C h h k d w k d w s d s h o.&.&.o.h s s s V w d k C Z Z C 5 4 & j ",
"d s k s s s s s s s s h { &.&.@.c a s s s s s s k k k k Z Z H x d k k s k w d d s s s h o.$.&.o.h s s s w k w V Z Z Z l 4 & 4 M ",
"k s s k s s s s s s s s { &.#.@.c a a s s s s s k k k x Z Z Z Z k k d k k w w k s s s h o.&.$.o.h s s s k w w k Z Z Z C 4 4 & B ",
"s s a s s a a a a a a s { #.&.@.h a a a a s a a s s s s x l x k w d w d w k w w a a a d | &.#.o.h s s s w k w w V C C w 4 4 & M ",
"- * - - - - & * * * * - _ #.#.@.c a a t - - * : - * - * * * * * 7 8 8 8 q 8 8 8 & & & e { #.#.} h d s a 8 8 8 7 * * * * & & % B ",
"% - * % - * & & & & & - [ #.#.| g a a 8 & & & & & & & & & & - - 7 7 7 7 8 8 8 7 & & + , [ +.@.| h s s s 8 7 8 8 * & & & & & & n ",
"& * - % - % & & & & & : ( #.#.o.h 9 a 9 - & & & & - & & & & - 4 8 7 8 7 8 8 8 7 & + + 7 { +.#.{ h s s a 8 8 8 7 & & & & & & & p ",
"* 4 4 4 * % - & * * 4 : { &.&.o.c a a 9 - & & & % % % + & & & 4 4 4 & 4 7 7 8 7 & & - , [ #.#.| h d s a 7 7 5 7 * * * & & & & v ",
"8 7 8 8 - - & & 8 8 7 0 ..=.*.&.c s s a * % - % .     X = - & + o o o + * 5 5 5 & & & 7 { #.#.| h s d a - & & - 6 7 7 7 + + 4 j ",
"8 8 8 7 - % & & 7 7 8 8 ..=.*.%.m s s a * - - - .     X % - - & o o o o 5 5 5 5 & & & < } #.#.o.h s s w - & & - 7 8 7 7 7 4 & n ",
"8 8 7 8 4 & & & 7 8 8 0 ..=.*.*.m s s a & & % &       . & & & % o o o o 4 5 5 5 & - & : { $.$...h s s w & & % 4 7 7 7 7 % - & N ",
"t t t t e e e e t 0 t t ..*.*.*.F h h h e e e e $ @ O @ , e e : ; = = ; 0 r 0 r 7 , e y } $.$...m h h g r : e r t r t t e e 7 L ",
"( ( ` ( ( ( ( ( / / Y / #.&.*.#.[ ( ( ( ( ( ( ( T Y ` Y / T T T ^ / / / ( ( / ( ( ( / ( $.&.*.@.' ( ( ` ' ` ` ` / / Y ` ( ( T #.",
"' [ ' ' ' ' ' ' ` ( / ` #.&.&.$.[ ] [ ' [ ' ' ' ] ' ' ' ] ' ] [ ' ' ' ' ' ' ' ' ' ' ' ' $.*.*.$.[ ' ' [ } ] ] ] ' ' ` ' [ ' ] $.",
"' ' ] ' ' ] ' ' ( ` ` ( #.$.*.$.[ [ ' ' ] ' ] ' ' ' ' ' ' ' [ [ ] [ ' ] [ ' ' ] ' ' ' ] $.*.*.$.] ' ' ] } ] ] ] ' ' ` ' ' ] ' +.",
"_ T ^ ^ ^ ! T T Y U Y U { ....o._ ^ ^ ^ ^ U T T T T T T ' } [ ` ^ Y U ^ ) _ _ ) / ^ / ^ X.......T T T T _ _ ( T Y Y T ( [ } } #.",
"h z h d d h z k V V C C h d h d d d g d d h d d a a t g | +.#.[ d a f s C H H H h d d d h d h k s g s s s d d d d h k F &.=.=.>.",
"s s s d k s d s x x x x d s s s s s s s s s s s a q w g | #.+.{ f 9 a a C Z Z x s s s s s s s w a a a a s s s s d d s F %.;.=.,.",
"d d d d s k s d x x x x d a s s s s s s s s s s w w w g | +.| { a a a s Z H H Z s s s s s s s s a a a s k s s s s d s F %.=.=.1.",
"s s s s s a s a s k s s a a a a w a w w q a w w 8 7 7 t | #.+.{ d a a a k k k d a w a w a w t a 9 a 8 a 9 a 9 a a a a m %.=.&.1.",
"s s s s 4 - & - & & % & + - - + & & : & & & & & + o o = } #.+.[ h s s a * & % : & & - & & & & * + 4 4 - & 4 & 4 4 4 * p #.%.%.,.",
"s s s s 7 % & & % % & & 4 4 - 4 & & & & & & & & o o X $ [ @.@.{ d s s a & & & % & & & & & & & & - 4 % - 4 & 4 7 6 4 - p #.%.#.,.",
"s s s s 7 & & - & & % & - % - - & & & & & & & & + o o & } #.@.{ h s s a & % & % & & & & & & & & - & & & & & 4 + 6 6 - p #.&.#.>.",
"s s s s 4 & + - + & - % - - - % & & & & & & & & o o o ; } #.#.{ h s s s * % & & & & & & & & & & & & & & 4 & & 4 6 - - p #.#.#.-.",
"s s s d + o o O e 7 7 8 + 7 - + & & & & & & & & - + & e | &.&.{ h s s a 4 & & & & & & & & & & - 6 6 5 5 & & & & 6 - - p #.&.#.-.",
"s s s a + X o O 6 8 7 7 7 + 6 7 & & & & & & & & - & & t @.&.&.| s s s a 4 * & & & & & & : & & & 7 5 5 4 & & & - 6 6 - p @.#.#.-.",
"a s d a + O X o 4 7 8 7 6 + + 6 & & & & & & & & - % + e | &.$.{ h s s a - & & & & & & & & % & & 5 5 7 4 % - & & * 4 - p @.$.#.,.",
"m m m m < > > > u u t u u r y u r r r i < i < i r y e j @.&.&...m m m m y r r r < y < < r y y r u i i y y r r y y y y b #.$.#.<.",
"` ` [ ` ` ` ~ ` ` I ` ` ` ' ' ` ' ( ( ( ' ` ` ' ' ` ` ' #.&.&.$.[ [ [ ' ` ` ` ` ` ` ` ` ' ( ' ( ' ( [ ' ` ` ` ( ` ` ` ' @.#.@.,.",
"[ ' ` [ ' ] ] ' ` ` ` ` ' ] ] ' ' ' ] ] ] ' ] ] ' ' ' [ $.*.&.#.[ ' [ [ ] ' ' ' ` ' ` ' ' ' ' ' [ [ [ [ ' ' [ ' [ ' ' ] +.#.@.,.",
"' [ [ [ ] ] ' ' ` ` ` ` ] [ ] ] ' ' ] ' ] ] [ ] ] [ [ [ &.*.*.$.[ [ [ [ [ [ ' ' ' ` ' ` ' [ ' [ [ } } [ [ ' [ ' [ ' ] ] #.+.#.:.",
"2 2 2 2 3 1 1 1 1 1 1 1 2 2 2 2 2 2 2 3 3 3 2 2 2 2 2 K I I ~ I K K K 2 2 2 K 2 1 3 1 2 2 3 2 3 K 3 K K 2 2 2 K 2 K 2 3 P P P ` "
};
