/* XPM */
static char *result[] = {
/* columns rows colors chars-per-pixel */
"64 64 256 2 ",
"   c black",
".  c #010101",
"X  c #020202",
"o  c gray1",
"O  c #040404",
"+  c gray2",
"@  c #060606",
"#  c #070707",
"$  c gray3",
"%  c #090909",
"&  c gray4",
"*  c #0B0B0B",
"=  c #0C0C0C",
"-  c gray5",
";  c #0E0E0E",
":  c gray6",
">  c #101010",
",  c #111111",
"<  c gray7",
"1  c #131313",
"2  c gray8",
"3  c #151515",
"4  c #161616",
"5  c gray9",
"6  c #181818",
"7  c #191919",
"8  c gray10",
"9  c #1B1B1B",
"0  c gray11",
"q  c #1D1D1D",
"w  c #1E1E1E",
"e  c gray12",
"r  c #202020",
"t  c gray13",
"y  c #222222",
"u  c #232323",
"i  c gray14",
"p  c #252525",
"a  c gray15",
"s  c #272727",
"d  c #282828",
"f  c gray16",
"g  c #2A2A2A",
"h  c gray17",
"j  c #2C2C2C",
"k  c #2D2D2D",
"l  c gray18",
"z  c #2F2F2F",
"x  c gray19",
"c  c #313131",
"v  c #323232",
"b  c gray20",
"n  c #343434",
"m  c #353535",
"M  c gray21",
"N  c #373737",
"B  c gray22",
"V  c #393939",
"C  c #3A3A3A",
"Z  c gray23",
"A  c #3C3C3C",
"S  c gray24",
"D  c #3E3E3E",
"F  c #3F3F3F",
"G  c gray25",
"H  c #414141",
"J  c gray26",
"K  c #434343",
"L  c #444444",
"P  c gray27",
"I  c #464646",
"U  c gray28",
"Y  c #484848",
"T  c #494949",
"R  c gray29",
"E  c #4B4B4B",
"W  c #4C4C4C",
"Q  c gray30",
"!  c #4E4E4E",
"~  c gray31",
"^  c #505050",
"/  c #515151",
"(  c gray32",
")  c #535353",
"_  c gray33",
"`  c #555555",
"'  c #565656",
"]  c gray34",
"[  c #585858",
"{  c gray35",
"}  c #5A5A5A",
"|  c #5B5B5B",
" . c gray36",
".. c #5D5D5D",
"X. c gray37",
"o. c #5F5F5F",
"O. c #606060",
"+. c gray38",
"@. c #626262",
"#. c gray39",
"$. c #646464",
"%. c #656565",
"&. c gray40",
"*. c #676767",
"=. c #686868",
"-. c DimGray",
";. c #6A6A6A",
":. c gray42",
">. c #6C6C6C",
",. c #6D6D6D",
"<. c gray43",
"1. c #6F6F6F",
"2. c gray44",
"3. c #717171",
"4. c #727272",
"5. c gray45",
"6. c #747474",
"7. c gray46",
"8. c #767676",
"9. c #777777",
"0. c gray47",
"q. c #797979",
"w. c gray48",
"e. c #7B7B7B",
"r. c #7C7C7C",
"t. c gray49",
"y. c #7E7E7E",
"u. c gray50",
"i. c #808080",
"p. c #818181",
"a. c gray51",
"s. c #838383",
"d. c #848484",
"f. c gray52",
"g. c #868686",
"h. c gray53",
"j. c #888888",
"k. c #898989",
"l. c gray54",
"z. c #8B8B8B",
"x. c gray55",
"c. c #8D8D8D",
"v. c #8E8E8E",
"b. c gray56",
"n. c #909090",
"m. c gray57",
"M. c #929292",
"N. c #939393",
"B. c gray58",
"V. c #959595",
"C. c gray59",
"Z. c #979797",
"A. c #989898",
"S. c gray60",
"D. c #9A9A9A",
"F. c #9B9B9B",
"G. c gray61",
"H. c #9D9D9D",
"J. c gray62",
"K. c #9F9F9F",
"L. c #A0A0A0",
"P. c gray63",
"I. c #A2A2A2",
"U. c gray64",
"Y. c #A4A4A4",
"T. c #A5A5A5",
"R. c gray65",
"E. c #A7A7A7",
"W. c gray66",
"Q. c #A9A9A9",
"!. c #AAAAAA",
"~. c gray67",
"^. c #ACACAC",
"/. c gray68",
"(. c #AEAEAE",
"). c #AFAFAF",
"_. c gray69",
"`. c #B1B1B1",
"'. c #B2B2B2",
"]. c gray70",
"[. c #B4B4B4",
"{. c gray71",
"}. c #B6B6B6",
"|. c #B7B7B7",
" X c gray72",
".X c #B9B9B9",
"XX c gray73",
"oX c #BBBBBB",
"OX c #BCBCBC",
"+X c gray74",
"@X c gray",
"#X c gray75",
"$X c #C0C0C0",
"%X c #C1C1C1",
"&X c gray76",
"*X c #C3C3C3",
"=X c gray77",
"-X c #C5C5C5",
";X c #C6C6C6",
":X c gray78",
">X c #C8C8C8",
",X c gray79",
"<X c #CACACA",
"1X c #CBCBCB",
"2X c gray80",
"3X c #CDCDCD",
"4X c #CECECE",
"5X c gray81",
"6X c #D0D0D0",
"7X c gray82",
"8X c #D2D2D2",
"9X c LightGray",
"0X c gray83",
"qX c #D5D5D5",
"wX c gray84",
"eX c #D7D7D7",
"rX c #D8D8D8",
"tX c gray85",
"yX c #DADADA",
"uX c gray86",
"iX c gainsboro",
"pX c #DDDDDD",
"aX c gray87",
"sX c #DFDFDF",
"dX c gray88",
"fX c #E1E1E1",
"gX c #E2E2E2",
"hX c gray89",
"jX c #E4E4E4",
"kX c gray90",
"lX c #E6E6E6",
"zX c #E7E7E7",
"xX c gray91",
"cX c #E9E9E9",
"vX c #EAEAEA",
"bX c gray92",
"nX c #ECECEC",
"mX c gray93",
"MX c #EEEEEE",
"NX c #EFEFEF",
"BX c gray94",
"VX c #F1F1F1",
"CX c gray95",
"ZX c #F3F3F3",
"AX c #F4F4F4",
"SX c gray96",
"DX c #F6F6F6",
"FX c gray97",
"GX c #F8F8F8",
"HX c #F9F9F9",
"JX c gray98",
"KX c #FBFBFB",
"LX c gray99",
"PX c #FDFDFD",
"IX c #FEFEFE",
"UX c white",
/* pixels */
"t.t.t.r.;.$.$.$.@.@.@.@.V.`._._.~.Q.Q.W.k.y.u.u.8.2.2.2.V.!.Q.Q.Y.I.I.I.b.t.y.y.1.$.$.$. .( ( ( ' } } } $.,.,.>.a.R.R.R.!._._._.",
"t.t.t.r.;.$.$.$.@.@.@.@.V.`._._.~.Q.Q.W.k.y.u.u.8.2.2.2.V.!.Q.Q.Y.I.I.I.b.t.y.y.1.$.$.$. .( ( ( ' } } } $.,.,.>.a.R.R.R.!._._._.",
"t.t.t.r.;.$.$.$.@.+.+.+.V.`._._.~.Q.Q.W.l.u.u.u.8.1.1.2.V.!.Q.Q.Y.I.I.I.b.t.y.y.<.#.$.$. .( ( ( ' } } } $.,.>.:.p.R.R.R.~.`.`.`.",
"u.u.u.y.;.#.$.$.>.<.<.<.A.`.).).E.U.U.I.f.w.e.e.w.q.q.w.V.Y.U.U.Y.Y.Y.T.m.i.i.p.6.:.:.:.@._ ` ` [  .| | ;.8.8.7.f.L.L.K.U.W.W.W.",
"j.j.j.h.:.@.@.&.Z.Y.Y.Y.Q.^.^.^.B.k.l.j.3.=.-.=.x.R.T.T.M.j.k.k.Y._.).).G.z.x.x.z.z.z.x.q.O.+.+.+.@.@.@.s.L.K.K.B.a.a.a.a.s.s.s.",
"k.k.k.j.>.+.@.&.F.!.Q.Q.~.^.^.~.M.g.h.g.1.&.*.&.v.!.Q.Q.M.f.g.h.Y.`._.`.H.x.c.c.v.v.v.b.r.@.@.@.#.#.#.@.g.Y.U.Y.C.u.u.u.u.u.u.u.",
"l.l.l.j.:.+.+.%.F.~.!.!.^././.^.M.g.h.g.1.*.*.*.v.!.Q.Q.M.f.g.h.Y.`.`.`.J.c.c.c.v.v.v.b.r.@.@.@.#.#.#.@.g.T.Y.T.C.u.u.u.u.u.u.u.",
"i.i.i.i.6.1.1.4.V.K.K.K.P.I.I.I.v.f.f.d.:.@.@.@.x.!.Q.Q.B.j.k.k.H.R.T.R.Z.k.l.l.z.x.x.c.q.o.o.o.+.#.#.#.y.C.V.V.b.d.d.d.a.i.i.i.",
"$.$.$.&.b.J.H.F.s.r.r.r.u.p.p.p.i.u.u.y.X.( ) ( g.~.Q.Q.D.m.m.m.g.p.p.p.i.i.i.i.s.g.f.g.4.' ] ' ..$.$.$.$.%.%.$.9.C.C.C.v.s.s.s.",
"@.@.@.$.m.P.L.J.p.q.w.w.t.u.u.u.u.u.u.t.../ ( / g.~.Q.Q.D.M.M.M.f.u.u.u.u.u.u.u.s.f.f.g.3.' ' ' ..$.$.$.#.@.@.+.7.Z.Z.Z.b.s.s.s.",
"@.@.@.$.m.P.P.J.p.q.w.w.t.u.u.u.u.u.u.y.../ ( / g.~.Q.Q.D.M.M.M.f.u.u.u.u.u.u.u.s.f.f.g.3.' ' '  .$.$.$.#.@.@.+.7.Z.Z.A.b.s.s.s.",
"@.@.@.$.x.D.S.A.s.t.y.y.y.u.u.u.y.t.y.r...( ( ( s.R.Y.Y.Z.n.n.n.f.i.p.p.i.u.u.u.i.i.i.p.<.' ' ' O.:.:.:.&.@.@.+.5.m.m.M.k.y.y.y.",
"@.@.@.@.=.;.;.>.v.Z.Z.Z.g.t.t.t.8.5.5.4...` ` ` 3.f.d.d.d.s.s.s.l.c.c.c.f.u.u.u.;.|  . .} [ [ ] q.J.H.J.t.+.@.@.$.-.-.-.@.{ { { ",
"@.@.@.@.@.+.+.%.n.G.F.F.j.r.t.t.6.3.3.2...' ' ' <.u.u.u.i.p.p.p.z.b.b.b.g.u.u.u.&.` ' ' ] [ [ ] t.E.R.R.p.+.@.@.@.@.@.@.| ( ) ) ",
"+.+.+.+.+.+.+.%.n.G.G.G.j.t.t.t.7.3.3.2...' ' ' 1.i.u.u.i.p.p.p.z.n.n.n.h.u.u.i.&._ ` ` ' ] ] ' t.R.T.R.p.+.@.@.@.@.@.@. .) ) ) ",
":.:.:.:.>.,.,.1.k.m.n.n.i.8.9.9.2.,.,.>. .' ' ' >.r.e.e.u.p.p.p.d.f.f.f.y.0.0.q.>.@.#.#.#.@.@.+.u.L.K.L.p.&.&.*.%.@.@.@.X.] ] ] ",
"B.B.B.V.K.U.U.K.;.|  . .} { { { { [ [ [ ] ' ' ' @.;.;.;.0.i.u.y.@.` ` ` ] { { [ d.U.I.I.G.B.B.V.x.a.a.a.u.r.t.t.5.@.@.@.&.,.,.,.",
"S.S.S.D.T.!.!.T.&.` ' ' ' ' ' ' ' ' ' ' ' ' ' ' +.=.=.=.9.u.u.y.X.~ ^ ^ ( ` ` _ h.~.Q.!.U.D.D.F.c.y.u.u.u.u.u.i.7.@.@.@.=.1.1.1.",
"S.S.S.S.T.!.!.T.&.` ' ' ` ` ` ` ` ` ` ` ` ` ` ` O.=.=.=.9.i.i.u.X.~ ^ ^ ( _ _ ) h.~.Q.Q.U.D.D.F.c.y.u.u.u.u.u.i.6.@.@.+.*.1.1.1.",
"J.J.J.J.K.L.L.G.-.|  . .$.-.=.=.*.&.&.&.=.=.=.=.*.*.*.*.3.9.8.8.o._ ` ` +.:.:.:.b.W.E.E.K.B.B.V.x.a.a.a.p.u.u.u.9.;.;.;.:.<.<.<.",
"(.(.(.^.l.y.y.y.5.2.3.3.C.~.!.Q.P.J.J.J.R.Q.Q.Q.u.+.@.@. .[ [ [ @.*.*.&.N.oXXXXXQ.J.K.K.M.i.i.i.h.v.v.v.g.u.u.u.p.f.f.g.q.=.=.=.",
").).)./.j.e.r.e.6.4.4.4.S.).(.(.R.I.I.U.~././.(.i.+.@.@.} ' ' ' #.=.=.*.Z.%X#X$X~.H.J.K.m.u.u.u.h.b.b.b.g.u.u.u.a.h.h.j.w.=.=.=.",
").).).(.j.e.r.e.6.4.4.4.S.).(.(.R.I.I.U.~././.(.i.O.@.@.} ' ' ' #.=.=.*.Z.%X$X$X^.J.J.K.m.u.u.u.h.b.b.b.g.u.u.u.a.h.h.j.w.=.=.=.",
"Q.Q.Q.W.j.r.t.r.5.2.2.2.Z./.^.^.U.K.K.K.R.W.W.W.i.$.%.%. .] ] ] #.=.*.&.m.|.}.}.R.D.F.F.n.i.i.i.h.v.v.v.h.p.p.p.a.s.s.s.9.&.*.*.",
"u.u.u.u.d.g.g.s.=.O.+.+.k.L.J.J.c.g.g.g.a.p.p.p.t.w.w.w.-.O.O.O.@.#.#.#.-.1.1.<.e.d.s.s.h.z.z.z.l.k.k.k.x.b.b.b.u.$.$.$.O. . . .",
"9.9.8.9.s.h.h.f.&...X.X.g.H.G.F.k.p.a.p.r.q.w.w.r.y.y.y.>.@.@.@.@.@.@.@.@.+.+.+.5.u.u.y.f.c.c.c.z.j.j.j.c.m.m.M.y.X.X.X. .} } } ",
"9.9.9.0.s.h.h.f.&...X.X.h.J.H.G.l.a.s.a.r.w.w.w.t.y.y.y.>.+.@.@.+.+.+.+.@.@.@.@.5.i.u.u.f.v.c.c.z.j.j.j.c.M.M.N.u.X.X.X. .} } } ",
"9.9.9.0.p.f.f.s.=.+.+.+.p.N.M.m.p.w.w.w.7.5.5.5.8.0.0.0.,.*.=.=.:.>.>.>.-.&.*.&.4.w.w.w.u.h.h.h.g.f.f.f.h.j.j.k.q.X.X.X... . . .",
"q.q.q.q.q.0.q.0.5.4.4.4.$. . . .` ( ( ( / ^ ^ ^ ' } } } 8.g.f.g.S.P.P.P.v.y.y.y.>.O.O.O.#.*.*.*.,.6.6.6.%.[ { { } ......+.&.&.&.",
"q.q.q.q.9.9.9.9.7.6.6.6.O.` ' ` ~ Q Q Q W W W W ( ' ' ' 9.l.k.l.K.W.E.W.N.p.p.p.>. .....o.#.#.#.;.4.4.4.+.( ) ( ' ......+.*.*.*.",
"q.q.q.q.9.8.8.8.6.5.5.5.O._ ` ` ~ W W W W W W W / ` ` ` 9.l.k.k.J.E.E.E.M.i.i.p.:. . . .o.#.#.#.;.4.3.4.+.( ( ( ' ......+.*.*.*.",
"6.6.6.7.y.p.p.p.u.y.y.y.1.&.&.&. .] ] ] / ~ ~ ~ ..*.*.*.u.x.x.x.K.W.E.W.Z.j.k.k.7.&.*.*.&.%.%.$.1.w.w.w.:.X.X.X.X.o.o.X.@.&.&.&.",
"#.#.#.&.C.E.R.R.R.R.R.R.T.Y.Y.Y.k.t.y.t.$. . . .k.W.E.E.F.V.V.C.U.Q.Q.Q.W.E.E.E.Z.c.c.v.u.:.:.:.p.S.S.S.n.j.k.k.r.%.%.%.$.@.@.@.",
"@.@.@.$.A.!.Q.Q.Q.Q.Q.Q.Q.Q.Q.Q.c.p.p.i.&.......x.(.^.^.J.C.C.C.U.Q.Q.Q.Q.Q.Q.Q.D.n.n.m.p.>.>.:.s.G.F.F.N.x.x.c.y.%.%.%.$.@.@.@.",
"@.@.@.$.A.!.Q.Q.Q.Q.Q.Q.Q.Q.Q.Q.c.i.p.i.&.......x.(.^.^.J.C.C.Z.U.Q.Q.Q.Q.Q.Q.Q.D.n.n.m.p.>.>.:.s.G.F.G.N.x.x.c.y.%.%.%.#.@.@.@.",
"@.@.@.$.V.R.T.T.R.R.R.R.T.T.T.T.x.a.a.p.%.|  .| j.E.R.T.S.M.N.N.I.Q.Q.Q.Q.Q.Q.Q.A.x.c.c.i.,.<.,.i.B.B.B.v.j.j.k.y.:.:.:.;.-.-.-.",
"@.@.@.#.t.g.f.f.z.x.x.x.h.f.f.f.k.z.z.k.O./ ( ( $.3.2.2.7.9.9.0.D.!.Q.Q.Q.Q.Q.Q.j.2.3.3.8.r.r.t.:.{ { { +.=.=.*.r.K.K.K.K.K.K.K.",
"@.@.@.#.0.u.u.u.f.h.h.h.p.y.u.u.k.c.c.z.o.~ ^ ^ ..&.%.%.,.4.4.5.S.!.Q.Q.Q.Q.Q.Q.d.:.>.:.6.u.u.i.*.Q Q Q [ @.@.O.r.!.!.!.!.!.!.!.",
"@.@.@.#.0.i.u.i.f.h.h.h.a.u.u.u.k.v.v.z.o.~ ^ ^ ..&.&.&.<.4.4.5.S.~.!.!.!.Q.Q.!.f.:.>.:.6.i.u.i.=.Q ! ! [ @.+.O.e.Q.Q.Q.Q.Q.Q.Q.",
"O.O.O.+.6.e.w.e.f.h.h.h.a.u.u.u.s.f.f.s.o.( ( ( X.&.%.%.,.3.3.4.m.K.J.J.P.U.U.Y.d.<.1.<.5.q.q.q.%.^ / ^ o.>.>.:.a.Q.Q.Q.E.Y.Y.Y.",
"_ _ _ _  .o.X.+.i.k.k.k.a.u.u.y.@.` ' ' X.O.O.O.@.@.@.@.*.;.;.;.$.@.@.@.6.d.s.s.i.t.t.y.>._ ` ` } o.o.X.s.U.I.I.Y.Q.Q.!.D.g.g.g.",
"( ( ( ( { | | ..i.l.k.k.a.u.u.y.X.~ ^ ^ X.@.@.@.@.@.@.@.*.-.-.-.X.{ { { ,.u.u.u.u.u.u.i.:.~ ^ ~ [ +.+.O.j.~.Q.Q.Q.Q.Q.!.S.p.a.a.",
"( ( ( ( { | | X.i.l.k.k.s.u.u.y.X.~ ^ / ..@.@.@.@.@.@.@.&.-.-.-.X.} } { <.i.u.u.u.u.u.i.:.^ ^ ^ [ +.+.O.j.!.Q.Q.Q.Q.Q.!.S.a.a.a.",
"( ( ( ) { | | X.y.h.g.g.i.t.t.r.X.^ / ( O.&.%.%.&.&.&.&.-.;.;.;.O.| | | ,.t.t.t.t.y.y.y.:./ / / | %.%.$.k.W.E.E.E.W.W.W.A.a.a.a.",
"` ` ` ' ..O.O.O.O.+.+.+.+.@.@.@.o.X.X.O.h.V.V.V.D.J.J.J.j.r.t.t.4.<.<.<.#.} | } #.=.=.=.$.X.X...t.L.K.K.V.x.x.x.n.C.C.C.c.u.i.i.",
"' ' ' ' X.+.+.O.[ ` ` ` [ } } } O.@.@.$.N.Y.U.U.!.).).).M.a.a.a.0.5.5.6.+.^ ^ ^ | @.@.@.@.@.@.+.h.`._.`.S.d.f.d.k.m.m.m.k.u.u.u.",
"' ' ' ' X.+.+.O.[ ' ' ' [ } } } O.@.@.$.N.U.I.I.Q.(.(.(.m.p.a.a.9.4.5.5.O.^ / ^ | @.@.@.@.@.@.+.h._.)._.A.d.f.f.k.m.m.m.l.u.u.u.",
"] ] ] [ @.&.&.&.X. . . .X.o.o.o.+.+.+.#.n.L.K.K.E./././.M.a.s.s.e.0.0.0.*.[ [ [ X.@.@.@.@.@.@.+.h._.(.).A.d.f.f.k.n.n.n.j.r.r.r.",
"O.O.O.@.j.V.V.B.n.b.b.b.v.v.v.c.-.} }  .q.s.s.s.Z.T.T.T.V.c.c.c.G.U.I.I.K.F.F.G.q.+.@.@.@.@.@.+.d.~.!.!.C.d.d.d.f.g.g.h.8.o.O.O.",
"@.@.@.$.n.L.K.J.F.D.D.D.A.A.A.Z.:.[ { } 6.t.t.r.N.Y.U.U.C.b.b.n.U.^.^.^.~.!.!.!.u.+.@.@.@.@.@.+.d.!.Q.Q.V.s.d.d.d.d.d.f.4.{ } } ",
"+.+.+.$.b.K.J.J.D.S.S.S.A.Z.Z.C.:.[ { } 6.y.t.t.B.Y.Y.Y.C.b.b.n.U.^.~.~.!.Q.Q.!.u.O.@.@.@.@.@.+.d.!.Q.!.V.s.d.d.d.d.d.f.4.} } } ",
";.;.;.>.M.L.K.K.S.A.A.A.C.V.V.B.>.} |  .4.w.q.q.x.S.S.A.b.l.l.l.G.Y.Y.Y.Y.Y.Y.T.u.$.%.%.$.@.@.+.p.Y.U.U.N.d.f.f.d.s.s.d.4.{ { { ",
"F.F.F.F.U.T.T.Y.B.b.b.b.z.k.k.j.2.&.&.&.%.$.$.$...{ { { $.:.;.:.7.w.w.w.a.j.j.j.i.w.w.w.2.@.@.@.2.i.u.u.d.j.j.j.f.i.i.i.<.' ' ' ",
"I.I.I.U.T.R.R.T.N.v.v.v.k.h.h.g.3.=.=.=.#.+.+.+.' ~ ~ ~ X.&.&.&.2.6.6.5.r.d.d.d.i.t.t.y.4.@.@.@.,.w.w.q.p.j.j.j.f.u.u.i.<.' ' ' ",
"I.I.I.I.T.R.R.T.N.v.v.v.k.h.h.h.3.*.=.=.#.+.+.+.] ^ ^ ^ X.&.&.&.2.6.6.6.t.d.d.d.i.t.t.t.4.@.@.@.,.w.w.w.a.j.j.j.f.u.u.i.<.' ' ' ",
"K.K.K.K.U.T.T.Y.N.b.b.b.l.g.h.g.3.=.-.=.$.@.@.@.{ ( ( ( o.&.&.&.1.5.5.5.e.a.a.a.u.t.t.y.4.@.@.@.,.w.q.q.i.g.g.g.s.t.t.y.,.' ] ] ",
"5.5.5.6.l.M.M.M.F.J.J.J.z.i.p.p.8.3.3.4.9.q.0.0.8.6.6.6.&.o.o.o.@.$.$.$.$.%.%.%.6.u.u.u.5.@.@.@.=.1.1.1.=.+.+.+.O.o.o.o.O.@.@.@.",
"%.%.%.*.a.x.x.c.J.U.I.I.z.y.u.u.9.6.6.7.t.i.u.u.u.u.u.u.-. .....X.o.o.o...| | | 3.i.u.i.5.@.@.@.*.>.>.>.O.` ` ` ` ` ` `  .%.%.%.",
"&.&.&.*.s.c.x.v.J.I.I.I.z.y.u.u.9.6.6.6.r.u.u.u.u.y.y.y.=. .....X.o.o.o... . . .3.i.u.i.5.@.@.@.*.>.>.>.O.` ' ' ' ' ' '  .%.%.%.",
"=.=.=.;.i.j.j.k.D.K.K.K.l.u.i.u.0.7.7.7.w.r.r.r.r.r.r.r.:.@.@.@.@.+.+.@.O.o.o.o.2.r.e.r.3.@.#.@.-.2.2.3.&. . ...} ] ] ] X.*.*.*.",
"p.p.p.u.&.....o.0.u.y.y.s.g.g.g.i.t.t.r.%. .....%.:.:.:.j.A.Z.Z.a.q.w.w.q.q.q.q.%.] [ ] o.=.=.*.i.F.D.D.F.F.F.G.g.O.O.O.>.t.r.r.",
"g.g.g.f.O.) ) ` 2.9.9.9.p.h.h.h.p.u.u.y.O.` ' ` O.*.*.*.v.T.Y.U.l.u.u.u.u.u.u.i.#.~ ~ ~ } -.-.=.f.Y.Y.Y.E.!.!.~.n.@.@.@.1.a.p.p.",
"g.g.g.d.O.) _ ' 2.9.9.9.p.h.h.h.p.u.u.y.O.` ' ' O.*.*.*.v.Y.U.I.l.y.u.u.u.u.u.u.#.~ ^ ^ } -.-.=.f.Y.U.U.R.Q.Q.!.b.@.@.+.1.p.p.p.",
"g.g.g.d.O.) _ ' 2.9.9.9.p.h.h.h.p.u.u.y.O.` ' ' O.*.*.*.v.Y.U.I.l.y.u.u.u.u.u.u.#.~ ^ ^ } -.-.=.f.Y.U.U.R.Q.Q.!.b.@.@.+.1.p.p.p."
};
