/* XPM */
static char *result[] = {
/* columns rows colors chars-per-pixel */
"16 16 31 1 ",
"  c black",
". c #010101",
"X c #020202",
"o c gray1",
"O c #040404",
"+ c #070707",
"@ c gray3",
"# c #0B0B0B",
"$ c #0C0C0C",
"% c gray5",
"& c #0E0E0E",
"* c #101010",
"= c #111111",
"- c gray7",
"; c #131313",
": c gray8",
"> c #161616",
", c gray9",
"< c gray10",
"1 c gray11",
"2 c #1D1D1D",
"3 c gray12",
"4 c gray13",
"5 c #232323",
"6 c gray14",
"7 c #252525",
"8 c gray15",
"9 c #272727",
"0 c #282828",
"q c gray16",
"w c None",
/* pixels */
"wwww   ww   wwww",
"www&$$%ww%$$%www",
"ww ;007+@790= ww",
"w&;2008>,9001-%w",
" $000000000009# ",
" $900000000009# ",
" $900000000009# ",
" $000000000009# ",
"X%350000000053$X",
"wwX:q000000q-Xww",
"wwO=<500005<*Oww",
"wwww.1q00q<.wwww",
"wwwww*;65-*wwwww",
"wwwwwoo43XOwwwww",
"wwwwwww$$wwwwwww",
"wwwwwww..wwwwwww"
};
