/* XPM */
static char *result[] = {
/* columns rows colors chars-per-pixel */
"40 64 152 2 ",
"   c #171518",
".  c #181719",
"X  c #1A181A",
"o  c #1F211E",
"O  c #2B3E1C",
"+  c #252922",
"@  c #2F382A",
"#  c #2E421E",
"$  c #2A4322",
"%  c #264D2F",
"&  c #314620",
"*  c #344B22",
"=  c #344A2A",
"-  c #394E2E",
";  c #365124",
":  c #385226",
">  c #355A25",
",  c #395D27",
"<  c #35542A",
"1  c #3A5628",
"2  c #325E2F",
"3  c #3A5D29",
"4  c #234D32",
"5  c #3E4E35",
"6  c #285031",
"7  c #225439",
"8  c #24583C",
"9  c #285E3F",
"0  c #255336",
"q  c #325A33",
"w  c #315F39",
"e  c #3D632B",
"r  c #2F603B",
"t  c #3B6A34",
"y  c #3B6D39",
"u  c #3C733E",
"i  c #415C2E",
"p  c #405336",
"a  c #445B37",
"s  c #435539",
"d  c #465A3A",
"f  c #495F3D",
"g  c #42642C",
"h  c #43692F",
"j  c #466637",
"k  c #436C33",
"l  c #4D6E31",
"z  c #4C623F",
"x  c #4D6C3C",
"c  c #467133",
"v  c #497434",
"b  c #4D7E37",
"n  c #417238",
"m  c #4E753B",
"M  c #4D7A3A",
"N  c #51733E",
"B  c #517D3C",
"V  c #1E6C51",
"C  c #2C6543",
"Z  c #216B4E",
"A  c #326D43",
"S  c #2D744B",
"D  c #337246",
"F  c #3A7243",
"G  c #247654",
"H  c #2A7650",
"J  c #267C5B",
"K  c #1D7E64",
"L  c #167E6A",
"P  c #217F61",
"I  c #5D5E5E",
"U  c #437640",
"Y  c #477A43",
"T  c #547340",
"R  c #557C42",
"E  c #5A7C47",
"W  c #5C7C4A",
"Q  c #62675F",
"!  c #5B5F60",
"~  c #5D5A7E",
"^  c #616360",
"/  c #666964",
"(  c #686A66",
")  c #67676B",
"_  c #68676C",
"`  c #676868",
"'  c #6B6B6B",
"]  c #4E8037",
"[  c #50803A",
"{  c #588F3E",
"}  c #5B943F",
"|  c #29825E",
" . c #1F8165",
".. c #1C856D",
"X. c #0D887D",
"o. c #118172",
"O. c #198973",
"+. c #218163",
"@. c #558140",
"#. c #5A8345",
"$. c #5E854A",
"%. c #5E8848",
"&. c #5B9241",
"*. c #61834F",
"=. c #638C4E",
"-. c #648650",
";. c #688755",
":. c #658951",
">. c #698D55",
",. c #6C8E58",
"<. c #679350",
"1. c #6A9354",
"2. c #6E935A",
"3. c #70955C",
"4. c #3A318A",
"5. c #3E3493",
"6. c #403596",
"7. c #42369C",
"8. c #43399E",
"9. c #4637A2",
"0. c #463AA5",
"q. c #473BA8",
"w. c #2D5398",
"e. c #236196",
"r. c #246098",
"t. c #2B609F",
"y. c #384EA3",
"u. c #2B5FA0",
"i. c #3453A3",
"p. c #2B63A4",
"a. c #2B67A8",
"s. c #544F86",
"d. c #544D8E",
"f. c #5E5A80",
"g. c #4D41B5",
"h. c #4F43BD",
"j. c #5044BD",
"k. c #088F89",
"l. c #0B8D85",
"z. c #0C9489",
"x. c #0A8B9A",
"c. c #039796",
"v. c #049A96",
"b. c #03969A",
"n. c #009B9B",
"m. c #02A19F",
"M. c #0E90A5",
"N. c #089DA9",
"B. c #00A4A4",
"V. c #00ADAD",
"C. c #00B0B0",
"Z. c None",
/* pixels */
"Z.Z.Z.Z.Z.Z.Z.Z.Z.Z.Z.Z.v v k k v v k e e 3 e e t k k k Z.Z.Z.Z.Z.Z.Z.Z.Z.Z.Z.Z.",
"Z.Z.Z.Z.Z.Z.Z.Z.Z.Z.Z.Z.v v k k v v e k 3 e e e k k t k Z.Z.Z.Z.Z.Z.Z.Z.Z.Z.Z.Z.",
"Z.Z.Z.Z.Z.Z.Z.Z.Z.Z.Z.Z.k v k k v k v v b ] ] [ c k h k Z.Z.Z.Z.Z.Z.Z.Z.Z.Z.Z.Z.",
"Z.Z.Z.Z.Z.Z.Z.Z.Z.Z.Z.Z.n k k n k l b [ { } &.&.m k k e Z.Z.Z.Z.Z.Z.Z.Z.Z.Z.Z.Z.",
"Z.Z.Z.Z.Z.Z.Z.Z.Z.Z.Z.Z.k j E $.=.*.=.=.<.<.<.<.#.R m v Z.Z.Z.Z.Z.Z.Z.Z.Z.Z.Z.Z.",
"Z.Z.Z.Z.Z.Z.Z.Z.Z.Z.Z.Z.k n :.1.1.3.2.3.3.3.3.3.=.%.#.B Z.Z.Z.Z.Z.Z.Z.Z.Z.Z.Z.Z.",
"Z.Z.Z.Z.Z.Z.Z.Z.Z.Z.Z.Z.R E :.>.;.>.,.,.;.:.,.3.%.[ [ B Z.Z.Z.Z.Z.Z.Z.Z.Z.Z.Z.Z.",
"Z.Z.Z.Z.Z.Z.Z.Z.Z.Z.Z.Z.*.:.>.>.:.:.;.;.W E ,.3.#.B B B Z.Z.Z.Z.Z.Z.Z.Z.Z.Z.Z.Z.",
"Z.Z.Z.Z.Z.Z.Z.Z.Z.Z.Z.Z.:.-.s 5 p p W ;.;.-.z s - = x #.Z.Z.Z.Z.Z.Z.Z.Z.Z.Z.Z.Z.",
"Z.Z.Z.Z.Z.Z.Z.Z.Z.Z.Z.Z.1.-.+ .   o W ,.3.3.@   . X f :.Z.Z.Z.Z.Z.Z.Z.Z.Z.Z.Z.Z.",
"Z.Z.Z.Z.Z.Z.Z.Z.Z.Z.Z.Z.#.#.a p s d x N N N d i 5 = j m Z.Z.Z.Z.Z.Z.Z.Z.Z.Z.Z.Z.",
"Z.Z.Z.Z.Z.Z.Z.Z.Z.Z.Z.Z.m M =.1.3.,.i : : : *.3.#.b k e Z.Z.Z.Z.Z.Z.Z.Z.Z.Z.Z.Z.",
"Z.Z.Z.Z.Z.Z.Z.Z.Z.Z.Z.Z.v v [ #.B B g i i g c v v v k e Z.Z.Z.Z.Z.Z.Z.Z.Z.Z.Z.Z.",
"Z.Z.Z.Z.Z.Z.Z.Z.Z.Z.Z.Z.c c v c g g l l l l , > h c h e Z.Z.Z.Z.Z.Z.Z.Z.Z.Z.Z.Z.",
"Z.Z.Z.Z.Z.Z.Z.Z.Z.Z.Z.Z.e e g e , e g g h h e > e h e e Z.Z.Z.Z.Z.Z.Z.Z.Z.Z.Z.Z.",
"Z.Z.Z.Z.Z.Z.Z.Z.Z.Z.Z.Z.> ; ; ; > > > > g g > e g e e e Z.Z.Z.Z.Z.Z.Z.Z.Z.Z.Z.Z.",
"Z.$ $ : q 6 4 0 C A Y F Z V V Z e > e e y y e e S J H G D M F C 9 4 % q > # $ Z.",
"Z.$ O * : # O * : 3 l u k.n.n.v.A k v b u t y y z.m.B.n.| v g : * O O ; ; # @ 8 ",
"Z.$ # ; : # O * : e v u v.B.B.m.O. .u c e t P ..n.V.B.B.| c h : : # O * < # O 7 ",
"Z.$ # ; ; O O ; : h c D n.V.B.B.N.c.D e g t k.m.V.C.C.V.P k c 1 * # # * ; * O 0 ",
"C : * & & & & * * h c S m.V.V.V.B.B.O.+.|  .v.B.V.V.C.V. .h c ; * * & * # & ; w ",
"r - & O # : : O # g v H B.C.V.V.V.B.B.n.n.n.B.V.V.C.C.V.L v c * O * : & O & : w ",
"w : & O & : * O & h c J B.C.C.C.V.V.B.n.c.n.V.V.V.C.C.V.o.v c * O * : * O # : q ",
"w : & O & : ; O & h c K B.C.C.C.V.V.B.n.n.n.V.V.C.V.C.C.X.y c ; O & ; * O # : < ",
"Z.Z.& O * : * O * c v ..n.B.B.B.V.V.B.B.n.n.V.C.B.B.B.B.l.U v 3 O & : * O # Z.Z.",
"Z.Z.Z.Z.Z.Z.Z.Z.Z.Z.Z.Z.n.c.n.n.V.V.C.C.n.n.V.V.B.n.n.c.Z.Z.Z.Z.Z.Z.Z.Z.Z.Z.Z.Z.",
"Z.Z.Z.Z.Z.Z.Z.Z.Z.Z.Z.Z.b.n.b.n.V.C.V.V.n.n.V.C.B.B.n.c.Z.Z.Z.Z.Z.Z.Z.Z.Z.Z.Z.Z.",
"Z.Z.Z.Z.Z.Z.Z.Z.Z.Z.Z.Z.c.n.n.n.V.V.V.B.n.n.V.C.V.B.n.b.Z.Z.Z.Z.Z.Z.Z.Z.Z.Z.Z.Z.",
"Z.Z.Z.Z.Z.Z.Z.Z.Z.Z.Z.Z.v.n.B.B.V.V.B.B.B.B.V.C.V.B.n.c.Z.Z.Z.Z.Z.Z.Z.Z.Z.Z.Z.Z.",
"Z.Z.Z.Z.Z.Z.Z.Z.Z.Z.Z.Z.c.n.V.C.V.V.n.n.B.B.V.V.V.B.n.n.Z.Z.Z.Z.Z.Z.Z.Z.Z.Z.Z.Z.",
"Z.Z.Z.Z.Z.Z.Z.Z.Z.Z.Z.Z.v.n.V.V.C.C.m.n.B.V.V.C.V.B.n.n.Z.Z.Z.Z.Z.Z.Z.Z.Z.Z.Z.Z.",
"Z.Z.Z.Z.Z.Z.Z.Z.Z.Z.Z.Z.b.n.V.V.V.V.n.n.B.V.V.V.V.B.n.n.Z.Z.Z.Z.Z.Z.Z.Z.Z.Z.Z.Z.",
"Z.Z.Z.Z.Z.Z.Z.Z.Z.Z.Z.Z.B.B.V.V.C.V.m.n.B.V.V.V.V.V.n.n.Z.Z.Z.Z.Z.Z.Z.Z.Z.Z.Z.Z.",
"Z.Z.Z.Z.Z.Z.Z.Z.Z.Z.Z.Z.C.C.V.V.C.V.m.n.B.B.C.C.C.C.n.n.Z.Z.Z.Z.Z.Z.Z.Z.Z.Z.Z.Z.",
"Z.Z.Z.Z.Z.Z.Z.Z.Z.Z.Z.Z.B.B.B.B.m.B.B.B.V.V.V.V.V.V.n.n.Z.Z.Z.Z.Z.Z.Z.Z.Z.Z.Z.Z.",
"Z.Z.Z.Z.Z.Z.Z.Z.Z.Z.Z.Z.c.n.n.n.c.n.B.B.V.C.V.V.V.V.n.n.Z.Z.Z.Z.Z.Z.Z.Z.Z.Z.Z.Z.",
"Z.Z.Z.Z.Z.Z.Z.Z.Z.Z.Z.Z.t.t.t.u.t.u.p.a.a.a.w.e.N.C.n.n.Z.Z.Z.Z.Z.Z.Z.Z.Z.Z.Z.Z.",
"Z.Z.Z.Z.Z.Z.Z.Z.Z.Z.Z.Z.0.0.0.9.0.0.q.9.0.9.4.4.M.C.n.n.Z.Z.Z.Z.Z.Z.Z.Z.Z.Z.Z.Z.",
"Z.Z.Z.Z.Z.Z.Z.Z.Z.Z.Z.Z.0.0.q.0.0.0.0.0.0.0.8.7.w.e.x.b.Z.Z.Z.Z.Z.Z.Z.Z.Z.Z.Z.Z.",
"Z.Z.Z.Z.Z.Z.Z.Z.Z.Z.Z.Z.0.0.0.0.0.0.0.0.0.q.q.0.9.0.y.i.Z.Z.Z.Z.Z.Z.Z.Z.Z.Z.Z.Z.",
"Z.Z.Z.Z.Z.Z.Z.Z.Z.Z.Z.Z.h.j.h.h.j.h.j.h.8.0.0.0.0.q.0.0.Z.Z.Z.Z.Z.Z.Z.Z.Z.Z.Z.Z.",
"Z.Z.Z.Z.Z.Z.Z.Z.Z.Z.Z.Z.g.g.g.g.j.q.j.q.8.0.0.0.0.0.0.0.Z.Z.Z.Z.Z.Z.Z.Z.Z.Z.Z.Z.",
"Z.Z.Z.Z.Z.Z.Z.Z.Z.Z.Z.Z.8.0.0.0.q.0.0.0.0.0.0.0.0.0.0.0.Z.Z.Z.Z.Z.Z.Z.Z.Z.Z.Z.Z.",
"Z.Z.Z.Z.Z.Z.Z.Z.Z.Z.Z.Z.0.0.0.0.q.0.0.0.0.0.q.0.0.q.0.0.Z.Z.Z.Z.Z.Z.Z.Z.Z.Z.Z.Z.",
"Z.Z.Z.Z.Z.Z.Z.Z.Z.Z.Z.Z.0.0.0.0.0.0.0.0.0.0.0.0.0.0.0.0.Z.Z.Z.Z.Z.Z.Z.Z.Z.Z.Z.Z.",
"Z.Z.Z.Z.Z.Z.Z.Z.Z.Z.Z.Z.0.q.0.0.0.0.0.0.0.0.0.0.0.0.q.0.Z.Z.Z.Z.Z.Z.Z.Z.Z.Z.Z.Z.",
"Z.Z.Z.Z.Z.Z.Z.Z.Z.Z.Z.Z.0.0.q.0.0.0.0.0.0.0.0.0.0.q.0.0.Z.Z.Z.Z.Z.Z.Z.Z.Z.Z.Z.Z.",
"Z.Z.Z.Z.Z.Z.Z.Z.Z.Z.Z.Z.8.0.0.0.0.0.0.0.0.0.0.0.0.0.0.0.Z.Z.Z.Z.Z.Z.Z.Z.Z.Z.Z.Z.",
"Z.Z.Z.Z.Z.Z.Z.Z.Z.Z.Z.Z.0.0.0.0.0.0.0.0.0.0.0.0.q.0.0.0.Z.Z.Z.Z.Z.Z.Z.Z.Z.Z.Z.Z.",
"Z.Z.Z.Z.Z.Z.Z.Z.Z.Z.Z.Z.8.0.0.0.0.0.0.0.0.0.6.4.5.5.8.0.Z.Z.Z.Z.Z.Z.Z.Z.Z.Z.Z.Z.",
"Z.Z.Z.Z.Z.Z.Z.Z.Z.Z.Z.Z.8.0.7.6.5.6.8.0.0.0.4.4.4.4.7.0.Z.Z.Z.Z.Z.Z.Z.Z.Z.Z.Z.Z.",
"Z.Z.Z.Z.Z.Z.Z.Z.Z.Z.Z.Z.0.0.5.4.4.4.8.0.0.0.7.7.7.7.0.0.Z.Z.Z.Z.Z.Z.Z.Z.Z.Z.Z.Z.",
"Z.Z.Z.Z.Z.Z.Z.Z.Z.Z.Z.Z.8.0.8.7.7.7.0.0.0.0.q.0.0.0.0.0.Z.Z.Z.Z.Z.Z.Z.Z.Z.Z.Z.Z.",
"Z.Z.Z.Z.Z.Z.Z.Z.Z.Z.Z.Z.0.0.0.0.0.0.0.0.0.0.0.0.0.0.0.0.Z.Z.Z.Z.Z.Z.Z.Z.Z.Z.Z.Z.",
"Z.Z.Z.Z.Z.Z.Z.Z.Z.Z.Z.Z.0.0.0.0.0.0.0.0.0.0.0.0.0.0.0.0.Z.Z.Z.Z.Z.Z.Z.Z.Z.Z.Z.Z.",
"Z.Z.Z.Z.Z.Z.Z.Z.Z.Z.Z.Z.0.0.0.0.0.0.0.0.0.0.0.q.0.0.0.0.Z.Z.Z.Z.Z.Z.Z.Z.Z.Z.Z.Z.",
"Z.Z.Z.Z.Z.Z.Z.Z.Z.Z.Z.Z.0.0.0.0.q.0.0.0.0.0.0.0.0.0.0.0.Z.Z.Z.Z.Z.Z.Z.Z.Z.Z.Z.Z.",
"Z.Z.Z.Z.Z.Z.Z.Z.Z.Z.Z.Z.8.0.0.0.0.0.0.0.0.0.0.0.0.q.0.0.Z.Z.Z.Z.Z.Z.Z.Z.Z.Z.Z.Z.",
"Z.Z.Z.Z.Z.Z.Z.Z.Z.Z.Z.Z.0.0.0.0.q.0.0.0.8.q.0.0.q.0.0.0.Z.Z.Z.Z.Z.Z.Z.Z.Z.Z.Z.Z.",
"Z.Z.Z.Z.Z.Z.Z.Z.Z.Z.Z.Z.~ f.f.f.~ ~ ~ ~ s.d.d.d.d.d.d.d.Z.Z.Z.Z.Z.Z.Z.Z.Z.Z.Z.Z.",
"Z.Z.Z.Z.Z.Z.Z.Z.Z.Z.Z.Z.Q ' ' ' ' ' ' ' ' ' ' ' _ ' ' ' Q Z.Z.Z.Z.Z.Z.Z.Z.Z.Z.Z.",
"Z.Z.Z.Z.Z.Z.Z.Z.Z.Z.Z.Z./ ( ' ' _ ' ' ' ` ' ' ' _ ' ' ' Q Z.Z.Z.Z.Z.Z.Z.Z.Z.Z.Z.",
"Z.Z.Z.Z.Z.Z.Z.Z.Z.Z.Z.Z.^ ' ' ' ) ) _ ) ` ' ' ' ' ' ' ' Q Z.Z.Z.Z.Z.Z.Z.Z.Z.Z.Z.",
"Z.Z.Z.Z.Z.Z.Z.Z.Z.Z.Z.Z.Z.Z.Z.Z.Z.Z.Z.Z.I ^ ^ ^ ^ ^ ^ ^ ! Z.Z.Z.Z.Z.Z.Z.Z.Z.Z.Z."
};
