/* XPM */
static char *result[] = {
/* columns rows colors chars-per-pixel */
"16 16 81 1 ",
"  c black",
". c #010000",
"X c #020000",
"o c #030000",
"O c #150100",
"+ c #160100",
"@ c #1A0100",
"# c #270100",
"$ c #280100",
"% c #2C0200",
"& c #2E0200",
"* c #310200",
"= c #330200",
"- c #350200",
"; c #370200",
": c #3A0200",
"> c #4E0300",
", c #520300",
"< c #530300",
"1 c #5A0300",
"2 c #5B0300",
"3 c #640400",
"4 c #660400",
"5 c #6A0400",
"6 c #6C0400",
"7 c #8F0600",
"8 c #930200",
"9 c #910500",
"0 c #930400",
"q c #900600",
"w c #910600",
"e c #930600",
"r c #940600",
"t c #9B0600",
"y c #9C0600",
"u c #9F0600",
"i c #A50500",
"p c #A50600",
"a c #A60600",
"s c #A80700",
"d c #A90700",
"f c #B40700",
"g c #B60700",
"h c #BA0700",
"j c #BC0700",
"k c #C80800",
"l c #C90800",
"z c #CF0800",
"x c #D00800",
"c c #FE0400",
"v c #F00900",
"b c #F10900",
"n c #F30800",
"m c #F20A00",
"M c #F30A00",
"N c #F60A00",
"B c #F60C02",
"V c #FA0800",
"C c #FB0A00",
"Z c #FC0A00",
"A c #FD0A00",
"S c #FE0A00",
"D c #FF0A00",
"F c #FE0B01",
"G c #FE0C02",
"H c #FE1107",
"J c #FE130A",
"K c #FD160D",
"L c #FF1F16",
"P c #FE2219",
"I c #FF241B",
"U c #FF3B33",
"Y c #FE4038",
"T c #FE5852",
"R c #FF5B55",
"E c #FE8F8B",
"W c #FE908C",
"Q c #FE9F9B",
"! c #FFC0BD",
"~ c #FFD9D7",
"^ c None",
/* pixels */
"^^^    ^^    ^^^",
"^^&qeew*=9807%^^",
"^$4CDDA56JRUV3#^",
"ouNASSSMnP~WKByX",
"odDSSSSDDHYE!IiX",
"osDSSSSSSScTQLiX",
"osDSSSSSSSSFGDpX",
"odDSSSSSSSSSSDaX",
"X2yZDSSSSSSDCt1X",
"^ ;xmDSSSSDmz- ^",
"^^^@gDSSSSDf@^^^",
"^^^.<rADDZe, ^^^",
"^^^^ :lbvk; ^^^^",
"^^^^^^+jhO^^^^^^",
"^^^^^^^>>^^^^^^^",
"^^^^^^^  ^^^^^^^"
};
