/* XPM */
static char *result[] = {
/* columns rows colors chars-per-pixel */
"64 64 88 1 ",
"  c #A9A36C",
". c #AFA972",
"X c #B3AD76",
"o c #B5AF78",
"O c #BBB47E",
"+ c #BEB87F",
"@ c #BDB581",
"# c #BFB881",
"$ c #BEB98C",
"% c #C0B785",
"& c #C2BC85",
"* c #C2B78B",
"= c #C6BE8A",
"- c #C8BF8E",
"; c #C5BD90",
": c #C9BE93",
"> c #C7C089",
", c #CAC48D",
"< c #CDC592",
"1 c #CFC891",
"2 c #C7C099",
"3 c #CEC499",
"4 c #CEC99D",
"5 c #D0C796",
"6 c #D2CB95",
"7 c #D1C69A",
"8 c #D5CD9A",
"9 c #D8CF9E",
"0 c #D6D097",
"q c #D7D099",
"w c #DAD39D",
"e c #D5CCA2",
"r c #DACEA3",
"t c #D6D1A4",
"y c #DDD4A3",
"u c #DFD8A2",
"i c #DED3A9",
"p c #DED9AB",
"a c #DCD2B0",
"s c #DDD9B2",
"d c #E0D6A7",
"f c #E2DBA5",
"g c #E1D6AA",
"h c #E5DAAD",
"j c #E8DFAE",
"k c #E0D7B4",
"l c #E6DBB2",
"z c #E9DDB2",
"x c #E3DFBC",
"c c #E8DFBC",
"v c #E6E0A7",
"b c #E6E0AA",
"n c #E9E2AC",
"m c #E6E3B3",
"M c #EDE2B5",
"N c #EEE8B2",
"B c #E6E1BB",
"V c #ECE4BA",
"C c #EDE9BC",
"Z c #F0E7B4",
"A c #F1E9B3",
"S c #F2E6BB",
"D c #F5E9BD",
"F c #F7F1B9",
"G c #FAF4BD",
"H c #E7E4C2",
"J c #EBE6C4",
"K c #EDE9C2",
"L c #EEEACC",
"P c #F1E7C4",
"I c #F6EDC2",
"U c #F8EDC2",
"Y c #F3EFCA",
"T c #F9F1C4",
"R c #FFFAC3",
"E c #F4F1CC",
"W c #FCF7CB",
"Q c #FDF9CD",
"! c #F0EED1",
"~ c #F7F5D3",
"^ c #F9F6D4",
"/ c #FFFED1",
"( c #FDFDDB",
") c #F7F6E3",
"_ c #F8F7E4",
"` c #FDFDE3",
"' c #FCFBEB",
"] c #FFFFF1",
/* pixels */
"2-=-8ifddddduwwwdjfhuw0w06660w0wufufuuuww898yyyd99rrK~~~h,,,4wwq",
"2=;=9fggdddfuwwwgfjjwwww06660ww0wfffuuuuww89yudud9yrJ~~~p,,,1qqw",
":=--9gggdgiduwwwdjhhuwww666600wwffffuuwuw8899yuiywr9P~^^p>,,0www",
"2<-<9ffugudguuwuyddiwwww01660000ffpfuuuuuiuuuiyyyrrySYYUp<110www",
"kuywwwqwriggghhz7***<66661616066sxxHkhlgE(((Dwwwyyyyywwwwyyyvbbb",
"luuyw8qqdggghhlz:***-66616161166sxxsmlllE((`Cwwwwyyyw090yyyuvbbb",
"muuywqqqrggillll7*%%<66661110666sxBHklgl~`(`Kwwwyryyw0009duivbnn",
"luuuywyygzhlgggg:**=<06666010660sxkxlhhgY^^^Cuydyyry90909yywbNnN",
"ggggzMMMDUUUjqq898808000wwwwuwwwtwuwfvfujlllzlzhd99961116666bUUD",
"agigzMMMDUUUj6q000080090wwwwwwwwtwwwwffvgjhhhzzld999611,1666jUUU",
"agggzMZMDUUUj06w080000900wwwwuwwwwuwffffhzlglzzld9996,111666jUUU",
"aiiizMzzSDPDj6w6890000000wwwwwwwwqqqwfffgglghjljd99w66666666hSSS",
"e5516999wwywwuwu0516wuwu06669yyy>XOX>0qqwwwwdffggjhfgfhgu0w0,===",
"r-1,68009w99wwuw0511wuufw6669ryy+...>0q69ww0wfffhjnnjjjjfwww,+++",
"t,1,6680898qwuuw0511wuuw01619rir+...>0608wwwwfffhjjjjjjhf0ww,+&+",
"u1616886ww9wywwu0800wuuuw600riir#oXo>6066w0wffffhhhjfgdffwdw,+%&",
"muubw000dzhgd600dhghzhzlhhhgzllh8,<<<1111666rhhhd999,=&=wZMM8,=>",
"pbubw008glzzd906dzlzzzzzhhhhhzzz9<4<11,11666rzhhr9r7=&&&9ZMM9=,,",
"sbfbw006gzlzu600dllzzzlhzghhzzzz9<461,6,6666dzhjrre7,&&&wZMZ0>>,",
"tuuuwqqquggfdggpghghhjzzhghgghhh95556q0666669iddr797,&=&9Mzz6>>=",
"0111wfwf8141H]''c666gnnnfyuuiiiiq800fAAAfwww6>&>:56<11160www,&&&",
"t,,1qwuwq111H]]]B666fnnnfuuyrrrr900qvAAAfuwu6&>&,11116160www,=&&",
"t11,0uuu611<H]]]B666fnnnfuuuirii8qq0fANNvwuw1&==,16<66110www,&&&",
"t,,,6uuu8<1<B'`'l116fnvjfuwdrrrrw0q0fNNNvwuu6,,,<11666680www,&>&",
"<++#5dii7<::9gfp1&&&wfffwww0060886q8wwwwgjhhSIUUjwwwggggfwwwt879",
"$+++4iii7;::6uww,+##0fffww90666668q66000dzzlDQQQMwwyglzgfwyyytee",
"$+OO<iii7:::6www,###0fufy0096666q868q00qglllDQQQnwwwghllhuyuerre",
";##+4iiy77776www,=&&0uufw9w90ww9qqqqq8q6gghhVTUTjyywgzglffuudrir",
"t0w0w0qqigggd9ww8www6666wffjAFFFbwuw83778qqqq0w0wuuwidggcLJJzhlh",
"pqww000qdzhld900wwww66,6yvffAGGFbwuw833380q06666wuufdiigcLLLcggl",
"swwww00qdhzhy0w9wwww6661wvjjAGGFbwuy8333800w6666wuuudiiicLLLchll",
"swwww0qqghzhdwwwwuwu66<6ufjfAFFFfwwtyrrr66666800wwuwiiiicJJJzhgg",
"juuurrigzMSMzhhhggri9666rzzzgigiy888BQQQt##&4wwww690rrrrrddrywww",
"juuugiigzMzMzzzhgggi8666gzhhgiig8888V///q#&#6wwww896rrridrdrwwww",
"iduudggrzzMMzzhzggii9666izzzgggge887C///w#&#1www9869rerrrrddwwuw",
"rwyyrgdyzzzzzhhjgidd9686rhhhgirr9848VQQQw&&&6wffw006rirr9d99wuwu",
":==&69wwgzgzd9wy999wyrrrr9780000qwwqupufwq9qfnNnuw0wudiir989fvvn",
"<%&&1w09gggad0900090rrgd7:5:5156qwwwwwwuuwwybNNNfww0igddr999fnnn",
"8&&&:999izzgd089w0wwyrrr95561065qwqwwyywwyuwvNNNfwwwyiui9999hnnn",
"7&>&598rrirryw9r0000yigg96555058wwywuuuuuwuufnnnuwwwglklr990unnv",
"lwywuiiy@...:ggh8=,=fzzzd0009rrrmZZVZnANvvbfu0qwwwwwL))_c80wwwww",
"muuuyiiiO   -zhh6=,=dZzSv900rrrrBSSSAAAAnvbnu006qwww!'''V6000www",
"tuuudgii@   -zgz8===gSSzd090wrrrzSSZAAAAnbfnw000qwww!'''B0060www",
"puyuudii%   -ggh5==,dzSzd000rryrzVSVANNAnfbfu0w0wwqwL'_'B66w0w0w",
"8666rghly00w0:7:0www9wwywwww0w09dffufufuwwwwnFFFf666wyyp6566,&#&",
"31,,yglgfvjv9:::8wwu0090wwwwww09wwuwwuwywwqqNRRRv16616116611&OOO",
"t,<1rlglvvvv8:::8ddw0800wyyww000wuuuywwwww00NRRRv66666666665%OOO",
"t666rhghvfff9:::0wwd00500yyy0866wwwwwyyww0wqbGGGf66666666665&@@O",
"Jhzzhuuuw606fhnnffuu0666wdfd1&&&=1,,8wwyw0099000tuuigggg9<616666",
"PZMZhwwuq666fNNNfuuu0656wffu=+++&===6ywww9900161wppilggl96116668",
"cSMMfwwyq656fAZNfuuu0666wdfu,+@@&===6wyw90990161euiihhhh9,616800",
"lczMhuduq666wvjhfwuw06669uuu-===----0ddiyw990666ypiigghgw6656880",
"agpuhhgz0,11=OOO,66666660066hZMMvrrdzSDSzgghduuuffufw0wqigggr:r9",
"iuyphlhl8,,,+XXX&66166666166zDDDjdggcDDDzzhzduuuffvfw000izzgr9:9",
"sipiplglq,11+XXX&66116666106hDSDzgggMDDSzzhzfduufuffw000rzllr7r7",
"xuuughlgq,,1#XXX&66666656060jSSShrgizDSSzhggduuuffvfw006rhllrr7r",
"cgggdreiq4666,>,8ryr87790wwwfffh7:51wfhf1&=%5009dhhh7<<:78009yir",
"cgggrreewq0065,1euiir7e7wuwwuuuu6-,=6dwd>OOO=000ilhl7::<-511rggg",
"kgggrreeq0686111eity9797wwuwufff1===0duu-OOO-000dhlhe:::5111rggg",
"agdddeet98qq6111tgipr77rwwwwufdg6--10fuf-OOO-0w0dghz7::<51119rii",
"e898uuupw00q,&>&bQWWvwuu6,,,dMzMd000hZZZ9<1<8yyydiygwwww00605-,,",
"e688ubbuw000,&&+m//QNuww6>>>iMMMdwwwjSSS91618yydiyrywwwww006,===",
"r688uuubw80q,&&&m/QQnuuu6>>>dMZzu90wzSSSy6658yyyyydywuwww66w,>=>",
"g688uubuw000,&#&m//Rnuuu6>>>dMzMuww9zSMMw1658yryrdrdwwwww00w,>>>"
};
