/* XPM */
static char *result[] = {
/* columns rows colors chars-per-pixel */
"64 64 63 1 ",
"  c #573C28",
". c #593D29",
"X c #5E412C",
"o c #62442E",
"O c #664730",
"+ c #674831",
"@ c #6C4B33",
"# c #714F36",
"$ c #735137",
"% c #765339",
"& c #79553A",
"* c #7E593D",
"= c #765740",
"- c #755843",
"; c #7A5A43",
": c #7C5F49",
"> c #7E624D",
", c #69625D",
"< c #7D6451",
"1 c #6E6965",
"2 c #6C6C6C",
"3 c #726A65",
"4 c #7B6E64",
"5 c #7E746D",
"6 c #7C7571",
"7 c #815B3F",
"8 c #855E41",
"9 c #876042",
"0 c #8C6444",
"q c #84634A",
"w c #8D694D",
"e c #906747",
"r c #916847",
"t c #956C4A",
"y c #996E4C",
"u c #9D714E",
"i c #846752",
"p c #876C56",
"a c #8A6B53",
"s c #946E50",
"d c #947155",
"f c #A1734F",
"g c #A47551",
"h c #A77852",
"j c #AC7C55",
"k c #AD7E58",
"l c #B07E57",
"z c #B17F58",
"x c #847367",
"c c #8A7463",
"v c #82756C",
"b c #847C75",
"n c #8A7E75",
"m c #857F7B",
"M c #B5825A",
"N c #BA855C",
"B c #85807D",
"V c #89827C",
"C c #868583",
"Z c #888684",
"A c #878788",
"S c #878888",
"D c #888989",
/* pixels */
"NNNjttytttt0&&&&&&%rMNNzytytttt0*&&&&&&$....%&&&&&%7NNNM77%7lNNN",
"NNNjtttttyy0*&&&&&&rNNNMttttttt0&&&&&&&#...X#&&&&&&7zNNz7%%7lzNN",
"NNNktttttytr&&&&&&%rNNNzytttyytw&&&&&%&$....%&&&&&&7zNNz77%7zzNN",
"ljkhyttr0009&&&&&%%0zMzldddt0099&&&&878*+ooO%&&&7770lNzl7%$%gjhl",
"*777yyy7.o.o&&&&&&&8yyydVZZ5O.XO&&%7kMMlrrrr7&%7lzzzfyytO..Xoooo",
"&%&7tty&...o%&&&&&&8tttdZAD6...X%&&8MMNzyttt&&&7zNNzyyttO.......",
"%&&7tty7...o&&&&&&%8tytdZDD6X..O&%%8MNNMyttr7%&7zNNzyyytO .... .",
"8970rrr&Xooo#$#%8988rrrtbbb4oXX@8980hjjhrrr07&%7gghf0707$@@@ooXX",
"MMMf&&&&%%%#...%zMNf&&&&**&&%&&7MMNj7&*&&*&&&&&%o.X....ogzzz7%7$",
"NNNg&&&&&&&#...%NNNg&&&&%&&&&&&0NNNl*&&&&&&&&&%%o......XhNNN777%",
"NNNg&&&&&%&#.. %NNNg&&&&%&&&&&%eNNNl*&&&&&&&&&%%.......ohNNz7%$%",
"MMMg;==&777%oX.%MMMf%%%%&&&&777rMMMj7**&&&&&&**%o.X.oOoOhzzz7%$7",
"yyya111czzzf%$$7yyu7XXXo%&&8zzzhyyyytrt9&&&&rtrw&%%7llllfyyy77$%",
"ytyp222cNNNl&&&7ttt7...X%&%0MNNltyytttyr&&&&rttt7%%7zNzNyryt7%$7",
"tttp222cNNNh7&&7ttt7. .X&&&8MNNztttttyyr*&&&rttr7%%7NNNzfyyr7$%7",
"ttya113cMMMh777700e7ooo+&&&8llzhtytt0009&&&*wtsw%7&7zzzlr00777%$",
"ttt0=&=9uyyuMMMyoXX#rrr0&&&&7777tty0o..o%&*=3223&&%7tyyt@.Xo%&&&",
"tyy0&&&8tttuNNNu...@ttyr&&&&&%&7tty0o..o&&%&3221&&%*tttrO...%%&&",
"ttt0&&&8yttfNNNy.. @tttr&&&&&&&7tyy0o  o%&&&1223=&&7ttttO...%&%&",
"rrr8###8tttukMMyooX$tttr%%#####&9997oooo%&%%,,,,&&%*eeee+XXo7888",
"&&&#...%ttttyyyr&%&7tty9X...X...X.Xo$&%&&&&%X..o%&&%*&&&%%%&jzNM",
"&&&#...#ttttttt0&&&7ytt0X..........X%&&&&&&%X..X%&&&&&&&&&&7lNNN",
"&&&@...#ttttttt0&&&7tty0..... ......%&&&&&&%X  X%&&&&&&&&&&7lNNN",
"*77#o..#trtrttt0*;;9rtr9o.XXoooOooo+%&&&7&77+ooO%%&&*&*&&&%7jNMz",
"llly$%$&777%&*&>BBBx&**&$%$7hllhjjkf7&%7llzlljlh7&%&rrrr7&&&tuyu",
"NNNh&%&&%&&%&&&iSSSv&&&&&&&9NNNNNNNl*&&8MNNNNNNz7&&7tttt7%&&rttt",
"NNNh&&&%&&&&&&&<ZSSv&&&&&&&9MNNNNNNl7&&8NNNNNNNz7%&7tttt7%&&rttt",
"llzy&&&77777777wVVZx****&&&9lzzzMMMh&$%7zMzzzzzl7%%7errr7&77rytt",
"777&&&&ezzzMzMzhssstttt0&&&&7777yyyeo..@tyyyyyyt7&&&&7&7ettttttt",
"%%&&&&&rNNMNNNNltttttttr&&&&%%&7ttt0X  +rttyttte&%&&&&&&rttttytt",
"&%&&&&%rNNNNNNNlyytttttr&&&&&&&7ttte.. orttytttt7&&&&&&&rtttttyt",
"777&&&&elljlllMjr0rttttw7%&%#%#&rre0@+o#ttttree0&&&&&&&&80e8rrer",
"ttt0&&&&*&*7yyyr&&&8tttr&&&#o..o&&&7errtyttt7&&&&&&&&&&&o.XX$&&7",
"ttt0&&&&&&&7ttt0&&&8tttr&&&#...o&&&*tttttttt7%&&&&&&%&&%X..X$7&$",
"ttt0&&%&&&&7tty0&&&7tttr7%&#...o&&&7tttttttr7&&&%%&&$%&%o..X$$&&",
"rtt0*&*%%%$*rrt0&&&7rrr0%%$#o..+&&&&rtrtrtre&%&&77777777o..X%7%7",
"*&77trt*X.oo*&*&&&&#oooooXXo$$$%&&&&&***7&77&&%7glzlllzl7##%0rrr",
"&&&7ttt*...o%&&&&&&#  .  . o&&&&&&&&&&&&&&%&&&&7zNNNNNNz7&&7rtyy",
"&&&8tty*.. o&&&&&&&#....   o%&&&&&&&&&&&&&%&&&&7zNNNNNNN77&&ryty",
"&%&8tty7..oo7777777#XXXXOO+@*&7&&$$$77777777%%#7lzMMzMMz8;;7erre",
"&&&8ttt9$%$7MMMzzzzu%%%7lzljrrt7X.X+jMMMMMMj@.XotyyyyyysnCCm;7&&",
"&&%8ttt0&&&9MNNNNNNg&&&7MNNzyty8...+lNMNMNNk+  XrttttttsVAZC:%&&",
"&&&8tty9&&&9MNNNNNNg&%&8MNNlttt7...+kNNNNNNl+ .ortttytttVAAC;&&&",
"&&&8tty9&&&8MNNMNMNg&778zMMlyty8XX.+MNMMNMNk@..o0tttttttnZZm;%&%",
"0te0*7**&&&7yuuuuyuflhlf7880ttta,,1,uuuuuuuy&###OOO@ttttq:8;+oXo",
"ttt0&&&&&&&7ttytyythNNNl7&&7ttta2223tttttttr7&&%...orttt*&=%X...",
"ttt0&&&&&&&*tttttttfNNNl&%&7ttta2223tttttttt&&&$o..oettt;%%%... ",
"ttt9%%%&*&&7ttttttyfMMzj7777rtta2213wttttttr7%&%o..o0ttt777&+oXo",
"***$XXX$t0r0***7tttyysyglllg77&&--**&7&7&7&7&&&&$$$%*7&7hjlljjhj",
"&&&@.. $ttte*&&7tytytttuMNNj&&&&&&&&&&&&&&&&&&&&&&&&&&&*jNNNNNNN",
"&&&@.. $ytte%*&7sttttttyNNNj&&&&&&&&&&&&&$%&&&&&&&&%%&%*jNNNNNNN",
"&&&$XoX$ttr0*%**rrtrttttzMzh7&7&&&&&$$$&7777&$%$&&&&7778jMMMMMMM",
"&&&70rt9****%&&*-;-;**&7yyyttrt9&&&$o.X@lMlj@.XX%&&7llMlgyyyyyyy",
"&&%8tty9%&%&&&%%----&&&7ttttttte&&&$.. @lNNl+..X%&&7MNNMutttttty",
"&&&8tty0&&&&&&*&---=&&&;ttttttt0&&&$...@MNNl+..X$&&7MNNNutyttttt",
"&&&8ttt9%%%%*&*----=%%%*ttttttt0*&*&oX.#lMNl@..o%&&7lMMMutttttyt",
"rrt8777#oXX$hjju&&*$XOXO*77&OOO&hjkhhhff07070907&&&&8899tttttytt",
"ttt0%&%@.. $NNNh&&&@   X%&&#.  %NNNNNNNj&&%7tttt7&&&&&&&0ttttttt",
"ttt0%&&#.. @NNNh&&&@...X%&&#.. %NNNNNNNk&&&&rttr&&&&&&&&tttttttt",
"ttte&&%#XoX%MMMh*&*#..XO&;;%...%MMMMMMNh7&&&ette7**&*&&*0ttttrrt",
"ttte&&%0hjhhyuuyrrr8$%%;mmmv%%$7uyyyuuyt7&&&&*770rrrrrrr7**&Oooo",
"ytt0&&%tNNNMtttttyy0&%&:CZAb;&&7ttyyyttr&&&%&&&&tttttttt7&&%....",
"tyte&&%rNNNkyttttty0&&%:ZZAb&&&7ytttttyr&&&&&&&*tttttttt*&&%X...",
"tty8%*%rNNNMttttttt0%&%:CAAb&&&7tttttttr&&&&&&&&rttytttt7&&%X..."
};
