/* XPM */
static char *result[] = {
/* columns rows colors chars-per-pixel */
"16 16 39 1 ",
"  c #261D0C",
". c #291B0E",
"X c #06241A",
"o c #0B211E",
"O c #002A1F",
"+ c #0D281F",
"@ c #042720",
"# c #072620",
"$ c #082520",
"% c #0A2520",
"& c #022C22",
"* c #002E22",
"= c #042E24",
"- c #0D3C32",
"; c #0B3E35",
": c #0E3D35",
"> c #113B37",
", c #113C35",
"< c #1B3C33",
"1 c #113B39",
"2 c #483612",
"3 c #4D3712",
"4 c #684D1E",
"5 c #715023",
"6 c #156355",
"7 c #166256",
"8 c #8E6620",
"9 c #1E8B78",
"0 c #2C8478",
"q c #208978",
"w c #2DC7AD",
"e c #29C9AD",
"r c #2BC8AD",
"t c #3BE7CD",
"y c #33EACB",
"u c #32EBCB",
"i c #37E9C9",
"p c #35EAC9",
"a c None",
/* pixels */
"a--aaaaaaaaaaaaa",
"a>p,aaaaaaaaaaaa",
"a1ey:aaaaaaaaaaa",
"aatry:aaaaaaaaaa",
"aa<yry:aaaaaaaaa",
"aaa:yry:aaaaaaaa",
"aaaa:yry:aaa#+aa",
"aaaaa:yry:a#6+aa",
"aaaaaa;iwu#9Xaaa",
"aaaaaaaa=*0&aaaa",
"aaaaaaa#6q#43aaa",
"aaaaaa$7@%a.82aa",
"aaaaaa##aaaa 5#a",
"aaaaaaaaaaaaaoOa",
"aaaaaaaaaaaaa##a",
"aaaaaaaaaaaaaaaa"
};
