/* XPM */
static char *result[] = {
/* columns rows colors chars-per-pixel */
"64 64 256 2 ",
"   c black",
".  c #010101",
"X  c #020202",
"o  c gray1",
"O  c #040404",
"+  c gray2",
"@  c #060606",
"#  c #070707",
"$  c gray3",
"%  c #090909",
"&  c gray4",
"*  c #0B0B0B",
"=  c #0C0C0C",
"-  c gray5",
";  c #0E0E0E",
":  c gray6",
">  c #101010",
",  c #111111",
"<  c gray7",
"1  c #131313",
"2  c gray8",
"3  c #151515",
"4  c #161616",
"5  c gray9",
"6  c #181818",
"7  c #191919",
"8  c gray10",
"9  c #1B1B1B",
"0  c gray11",
"q  c #1D1D1D",
"w  c #1E1E1E",
"e  c gray12",
"r  c #202020",
"t  c gray13",
"y  c #222222",
"u  c #232323",
"i  c gray14",
"p  c #252525",
"a  c gray15",
"s  c #272727",
"d  c #282828",
"f  c gray16",
"g  c #2A2A2A",
"h  c gray17",
"j  c #2C2C2C",
"k  c #2D2D2D",
"l  c gray18",
"z  c #2F2F2F",
"x  c gray19",
"c  c #313131",
"v  c #323232",
"b  c gray20",
"n  c #343434",
"m  c #353535",
"M  c gray21",
"N  c #373737",
"B  c gray22",
"V  c #393939",
"C  c #3A3A3A",
"Z  c gray23",
"A  c #3C3C3C",
"S  c gray24",
"D  c #3E3E3E",
"F  c #3F3F3F",
"G  c gray25",
"H  c #414141",
"J  c gray26",
"K  c #434343",
"L  c #444444",
"P  c gray27",
"I  c #464646",
"U  c gray28",
"Y  c #484848",
"T  c #494949",
"R  c gray29",
"E  c #4B4B4B",
"W  c #4C4C4C",
"Q  c gray30",
"!  c #4E4E4E",
"~  c gray31",
"^  c #505050",
"/  c #515151",
"(  c gray32",
")  c #535353",
"_  c gray33",
"`  c #555555",
"'  c #565656",
"]  c gray34",
"[  c #585858",
"{  c gray35",
"}  c #5A5A5A",
"|  c #5B5B5B",
" . c gray36",
".. c #5D5D5D",
"X. c gray37",
"o. c #5F5F5F",
"O. c #606060",
"+. c gray38",
"@. c #626262",
"#. c gray39",
"$. c #646464",
"%. c #656565",
"&. c gray40",
"*. c #676767",
"=. c #686868",
"-. c DimGray",
";. c #6A6A6A",
":. c gray42",
">. c #6C6C6C",
",. c #6D6D6D",
"<. c gray43",
"1. c #6F6F6F",
"2. c gray44",
"3. c #717171",
"4. c #727272",
"5. c gray45",
"6. c #747474",
"7. c gray46",
"8. c #767676",
"9. c #777777",
"0. c gray47",
"q. c #797979",
"w. c gray48",
"e. c #7B7B7B",
"r. c #7C7C7C",
"t. c gray49",
"y. c #7E7E7E",
"u. c gray50",
"i. c #808080",
"p. c #818181",
"a. c gray51",
"s. c #838383",
"d. c #848484",
"f. c gray52",
"g. c #868686",
"h. c gray53",
"j. c #888888",
"k. c #898989",
"l. c gray54",
"z. c #8B8B8B",
"x. c gray55",
"c. c #8D8D8D",
"v. c #8E8E8E",
"b. c gray56",
"n. c #909090",
"m. c gray57",
"M. c #929292",
"N. c #939393",
"B. c gray58",
"V. c #959595",
"C. c gray59",
"Z. c #979797",
"A. c #989898",
"S. c gray60",
"D. c #9A9A9A",
"F. c #9B9B9B",
"G. c gray61",
"H. c #9D9D9D",
"J. c gray62",
"K. c #9F9F9F",
"L. c #A0A0A0",
"P. c gray63",
"I. c #A2A2A2",
"U. c gray64",
"Y. c #A4A4A4",
"T. c #A5A5A5",
"R. c gray65",
"E. c #A7A7A7",
"W. c gray66",
"Q. c #A9A9A9",
"!. c #AAAAAA",
"~. c gray67",
"^. c #ACACAC",
"/. c gray68",
"(. c #AEAEAE",
"). c #AFAFAF",
"_. c gray69",
"`. c #B1B1B1",
"'. c #B2B2B2",
"]. c gray70",
"[. c #B4B4B4",
"{. c gray71",
"}. c #B6B6B6",
"|. c #B7B7B7",
" X c gray72",
".X c #B9B9B9",
"XX c gray73",
"oX c #BBBBBB",
"OX c #BCBCBC",
"+X c gray74",
"@X c gray",
"#X c gray75",
"$X c #C0C0C0",
"%X c #C1C1C1",
"&X c gray76",
"*X c #C3C3C3",
"=X c gray77",
"-X c #C5C5C5",
";X c #C6C6C6",
":X c gray78",
">X c #C8C8C8",
",X c gray79",
"<X c #CACACA",
"1X c #CBCBCB",
"2X c gray80",
"3X c #CDCDCD",
"4X c #CECECE",
"5X c gray81",
"6X c #D0D0D0",
"7X c gray82",
"8X c #D2D2D2",
"9X c LightGray",
"0X c gray83",
"qX c #D5D5D5",
"wX c gray84",
"eX c #D7D7D7",
"rX c #D8D8D8",
"tX c gray85",
"yX c #DADADA",
"uX c gray86",
"iX c gainsboro",
"pX c #DDDDDD",
"aX c gray87",
"sX c #DFDFDF",
"dX c gray88",
"fX c #E1E1E1",
"gX c #E2E2E2",
"hX c gray89",
"jX c #E4E4E4",
"kX c gray90",
"lX c #E6E6E6",
"zX c #E7E7E7",
"xX c gray91",
"cX c #E9E9E9",
"vX c #EAEAEA",
"bX c gray92",
"nX c #ECECEC",
"mX c gray93",
"MX c #EEEEEE",
"NX c #EFEFEF",
"BX c gray94",
"VX c #F1F1F1",
"CX c gray95",
"ZX c #F3F3F3",
"AX c #F4F4F4",
"SX c gray96",
"DX c #F6F6F6",
"FX c gray97",
"GX c #F8F8F8",
"HX c #F9F9F9",
"JX c gray98",
"KX c #FBFBFB",
"LX c gray99",
"PX c #FDFDFD",
"IX c #FEFEFE",
"UX c white",
/* pixels */
"K.K.K.J.S.A.A.D.L.L.L.L.H.G.G.F.m.n.n.M.F.G.G.G.A.Z.Z.Z.B.B.B.B.B.B.B.B.B.B.B.B.B.B.B.B.A.D.D.D.m.c.c.c.b.b.b.b.v.v.v.v.2.o.O.O.",
"K.K.K.J.S.A.A.D.L.L.L.L.H.G.G.F.m.n.n.M.F.G.G.G.A.Z.Z.Z.B.B.B.B.B.B.B.B.B.B.B.B.B.B.B.B.A.D.D.D.m.c.c.c.b.b.b.b.v.v.v.v.2.o.O.O.",
"K.K.K.J.S.A.A.D.L.L.L.L.H.G.G.F.m.n.n.M.F.G.G.G.A.Z.Z.Z.V.B.B.B.B.B.B.B.B.B.B.B.B.B.B.B.A.D.D.D.m.c.c.c.b.b.b.b.v.v.v.v.2.o.O.O.",
"K.K.K.J.A.Z.Z.S.J.K.K.J.G.F.F.D.n.b.b.m.D.F.F.F.Z.C.C.C.B.N.N.N.M.M.M.M.N.N.N.N.N.N.N.N.C.A.A.A.n.x.x.x.v.v.v.v.c.c.c.c.2.o.O.O.",
"H.H.H.D.c.z.z.x.c.c.c.c.x.x.x.l.u.y.y.i.z.x.x.x.z.z.z.z.z.l.z.k.r.w.w.w.p.s.s.s.s.s.s.s.p.i.i.i.p.a.a.a.a.a.a.a.i.u.u.u.:.O.+.+.",
"G.G.G.S.k.j.j.j.j.j.j.j.j.j.j.g.w.q.q.e.g.j.j.j.j.j.j.j.j.j.j.f.7.4.5.5.r.u.u.u.u.u.u.u.e.0.q.q.t.u.u.u.u.u.u.u.r.e.e.e.;.+.+.+.",
"G.G.G.S.l.j.j.j.j.j.j.j.j.j.j.g.e.q.q.e.h.j.j.j.j.j.j.j.j.j.j.g.7.5.5.5.r.u.u.u.u.u.u.u.e.q.q.q.t.u.u.u.u.u.u.u.t.e.e.e.;.+.+.+.",
"F.F.F.A.j.g.g.g.g.g.g.g.g.g.h.f.r.w.w.r.f.h.g.h.h.h.h.h.h.h.h.f.8.6.6.7.t.i.i.i.u.u.u.u.e.w.w.w.t.u.u.u.y.y.y.y.e.q.q.q.-.O.+.+.",
"M.M.M.v.t.e.e.e.e.e.e.e.e.e.e.r.f.g.g.d.r.e.e.e.u.i.i.i.i.i.i.i.y.t.t.y.d.h.h.g.p.u.u.u.y.y.y.y.u.u.u.u.9.6.7.7.2.,.,.,.#...X.X.",
"n.n.n.x.e.q.q.q.q.q.q.q.q.q.q.e.g.j.j.g.w.q.q.q.y.u.u.u.u.u.u.u.u.u.u.u.g.j.j.j.p.u.u.u.u.u.u.u.u.u.u.u.8.5.5.5.<.:.:.:.@.......",
"n.n.n.x.e.q.q.q.q.q.q.q.q.q.q.e.g.j.j.g.w.q.q.q.y.u.u.u.u.u.u.u.u.u.u.u.g.j.j.j.p.u.u.u.u.u.u.u.u.u.u.u.8.5.5.5.<.:.:.:.@.......",
"n.n.m.c.e.q.q.q.q.q.q.q.w.w.q.e.g.j.j.f.w.q.q.w.y.u.u.u.u.u.u.u.u.u.u.u.f.j.h.h.i.u.u.u.u.u.u.u.u.u.u.u.9.6.6.6.1.:.:.:.@.......",
"V.V.C.n.9.6.6.8.t.y.y.y.s.f.f.d.p.p.p.p.y.y.y.t.e.w.w.w.w.w.w.w.w.w.w.w.r.r.r.r.e.w.w.w.t.u.u.u.u.u.u.u.a.s.s.s.8.,.,.,.$.X.o.o.",
"Z.Z.Z.m.8.5.5.7.y.u.u.i.h.j.j.h.i.u.u.u.u.u.u.u.w.q.q.q.q.q.q.q.q.q.q.q.q.q.q.q.q.q.q.q.t.u.u.u.u.u.u.u.g.j.j.j.q.<.<.<.$.o.o.o.",
"Z.Z.Z.m.8.5.5.7.y.u.u.i.h.j.j.h.i.u.u.u.u.u.u.u.w.q.q.q.q.q.q.q.q.q.q.q.q.q.q.q.q.q.q.q.t.u.u.u.u.u.u.u.g.j.j.j.q.,.<.<.$.o.o.o.",
"Z.Z.Z.m.8.5.5.8.y.u.y.u.f.h.h.g.u.y.y.y.y.y.u.y.e.w.w.w.w.w.w.w.w.w.w.w.w.w.w.w.w.w.w.w.t.y.y.y.u.u.u.u.g.j.j.j.q.<.1.<.$.o.o.o.",
"B.B.V.n.w.0.0.0.w.w.w.w.e.e.e.e.w.w.w.w.w.w.w.e.s.g.g.g.g.g.g.g.g.g.g.g.g.g.g.g.g.g.g.g.e.7.7.7.r.u.u.u.g.j.j.j.r.5.5.5.%.......",
"B.B.B.n.e.q.q.q.q.q.q.q.q.q.q.q.q.q.q.q.q.q.q.w.f.j.j.j.j.j.j.j.j.j.j.j.j.j.j.j.j.j.j.j.w.4.5.5.e.u.u.u.g.j.j.j.r.6.6.6.%.......",
"B.B.B.n.e.q.q.q.q.q.q.q.q.q.q.q.q.q.q.q.q.q.q.w.f.j.j.j.j.j.j.j.j.j.j.j.j.j.j.j.j.j.j.j.w.4.5.5.e.u.u.u.g.j.j.j.r.6.6.6.%.......",
"B.B.B.n.e.q.q.q.q.q.q.q.q.q.q.q.w.w.w.w.0.0.0.q.d.h.h.h.h.h.h.h.g.g.g.g.g.g.g.g.f.f.f.f.w.6.7.7.e.y.y.y.d.g.g.g.w.4.5.4.%...X.X.",
"N.N.N.b.e.q.q.q.q.q.q.q.q.q.q.w.y.y.u.t.6.5.6.6.t.i.i.i.i.i.i.u.e.w.w.w.w.w.w.w.8.7.7.7.e.y.y.y.e.q.w.w.w.w.w.w.3.:.:.:.$.O.+.+.",
"N.N.N.b.e.q.q.q.q.q.q.q.q.q.q.w.y.u.u.t.6.5.5.6.t.u.u.u.u.u.u.y.w.q.q.q.q.q.q.q.6.5.5.5.e.u.u.u.e.q.q.q.q.q.q.q.2.;.;.;.$.+.+.+.",
"N.N.N.b.e.q.q.q.q.q.q.q.q.q.q.w.y.u.u.t.6.5.5.6.t.u.u.u.u.u.u.y.w.q.q.q.q.q.q.q.6.5.5.5.e.u.u.u.e.q.q.q.q.q.q.q.2.;.;.;.$.+.+.+.",
"N.N.N.b.e.0.q.q.q.q.q.q.q.q.q.q.t.y.y.r.6.5.5.5.r.y.y.y.y.y.y.t.q.q.q.q.q.q.q.0.6.5.5.5.w.t.t.t.w.0.0.0.q.q.q.q.2.;.:.:.$.+.+.+.",
"v.v.v.l.7.5.5.6.0.0.0.0.7.7.7.6.3.3.3.3.1.1.1.1.3.3.3.3.3.3.3.3.6.7.7.7.7.7.7.7.3.2.3.3.>.-.;.;.,.<.<.1.5.7.7.7.4.3.3.3.&.+.+.+.",
"c.c.c.k.6.4.4.5.0.0.0.0.7.6.6.5.1.<.<.<.<.<.<.<.<.<.<.<.<.<.<.1.5.6.6.6.6.6.6.6.3.2.2.2.-.$.%.%.;.>.>.>.4.6.6.6.5.4.4.4.*.+.+.+.",
"c.c.v.k.6.4.4.5.0.0.0.0.7.6.6.5.1.<.<.<.<.<.<.<.<.<.<.<.<.<.<.1.5.6.6.6.6.6.6.6.3.2.2.2.-.%.%.%.;.>.>.>.4.6.6.6.5.4.4.4.*.+.+.+.",
"h.h.h.s.3.1.1.2.6.7.7.6.4.3.3.2.>.>.>.>.>.>.>.>.>.>.>.>.>.>.>.>.2.3.3.3.3.3.3.3.1.<.<.<.=.$.%.%.-.:.;.:.2.4.3.3.2.2.2.2.&.O.O.O.",
"@.@.@.@.O.o.o.o.O.O.O.O.O.O.O.o.o.o.o.o.o.o.o.o.o.o.o.o.o.o.o.o.X.X.X.X.o.O.o.O.@.#.#.#.@.@.@.@.@.+.+.+.@.@.@.@.@.+.+.+.o.......",
"................................................................| | | |  .......O.+.+.+.@.@.@.@.+.O.O.O.O.O.O.O.o.o.o.o.X.......",
" . . . . . . . . . . . . . . . . . . . . . . . . . . . .........} } } }  . . . .o.O.O.O.+.+.+.+.O.o.o.o.o.o.o.o.o.X.X.X... . . .",
"=.=.=.=.=.=.=.=.=.=.=.=.=.=.=.=.-.-.-.-.-.-.-.-.=.=.=.*.o.....o.=.-.-.-.;.;.;.;.>.>.>.>.:.;.;.;.:.:.:.:.>.>.>.>.;.-.-.-.-.-.-.-.",
"m.m.m.m.N.B.B.B.B.B.B.B.B.B.B.B.A.A.A.A.A.A.A.A.B.N.N.v.*.X.X.*.A.L.L.L.F.S.S.S.A.A.A.A.b.l.z.z.M.V.V.V.A.S.S.S.M.c.c.c.B.S.A.A.",
"B.B.B.V.Z.Z.Z.Z.Z.Z.Z.Z.Z.Z.Z.A.G.G.G.G.G.G.G.G.Z.C.Z.M.=.X.X.*.G.T.Y.Y.K.H.H.H.G.F.F.F.M.c.c.c.V.A.A.A.F.G.G.G.V.n.n.n.A.G.G.G.",
"B.B.B.V.Z.Z.Z.Z.Z.Z.Z.Z.Z.Z.Z.A.G.G.G.G.G.G.G.G.Z.C.Z.M.=.X.X.*.G.T.Y.Y.K.H.H.H.G.F.F.F.M.c.c.c.V.A.A.A.F.G.G.G.V.n.n.n.A.G.G.G.",
"m.m.m.m.B.B.B.B.B.B.B.B.N.N.N.B.A.S.S.S.S.S.S.A.N.M.M.c.*.X.X.*.D.U.I.I.H.F.F.F.A.A.A.A.n.z.z.x.M.V.V.V.Z.A.A.A.M.c.c.v.B.A.A.A.",
"r.r.r.r.t.t.t.y.a.a.a.p.q.9.9.q.p.s.s.s.s.s.s.a.9.6.6.4.+.....$.b.C.C.C.c.l.z.l.d.a.s.s.p.p.p.p.y.t.t.t.t.t.t.t.t.r.r.r.t.t.t.t.",
"q.q.q.q.q.q.q.w.y.u.u.y.7.5.5.6.t.u.u.u.u.u.u.y.4.<.1.,.O.....#.c.B.B.N.z.j.j.h.p.u.u.u.u.u.u.u.e.q.q.q.q.q.q.q.q.q.q.q.q.q.q.q.",
"q.q.q.q.q.q.q.w.u.u.u.y.7.5.5.6.y.u.u.u.u.u.u.y.4.1.1.,.O.....#.v.B.B.B.z.j.j.j.p.u.u.u.u.u.u.u.e.q.q.q.q.q.q.q.q.q.q.q.q.q.q.q.",
"r.r.r.r.r.r.r.r.y.y.y.t.7.5.5.6.t.y.y.y.i.p.p.i.5.2.2.1.O.....$.v.V.V.B.l.g.g.g.i.u.u.u.u.u.u.u.r.w.w.w.e.r.r.r.w.q.q.q.q.q.q.q.",
"h.h.h.h.h.h.h.d.w.q.q.q.6.5.5.6.q.q.q.r.g.h.h.g.q.7.8.6.#.O.o.&.n.Z.Z.C.f.u.i.i.u.u.u.u.u.u.u.u.u.u.u.u.f.h.h.h.u.q.q.q.q.q.q.q.",
"j.j.j.j.j.j.j.f.w.q.q.0.6.5.5.6.0.q.q.e.h.j.j.h.w.8.8.6.#.O.O.&.m.Z.Z.C.f.u.u.u.u.u.u.u.u.u.u.u.u.u.u.u.g.j.j.j.u.q.q.q.q.q.q.q.",
"j.j.j.j.j.j.j.f.w.q.q.0.6.5.5.6.0.q.q.e.h.j.j.h.w.8.8.6.#.O.O.&.m.Z.Z.C.f.u.u.u.u.u.u.u.u.u.u.u.u.u.u.u.g.j.j.j.u.q.q.q.q.q.q.q.",
"h.h.h.h.h.h.h.d.w.w.w.q.8.7.7.8.w.w.w.r.g.h.h.g.q.7.7.5.#.O.o.&.m.A.A.Z.g.u.i.i.y.y.y.y.y.y.y.y.u.u.u.u.f.h.h.h.u.q.w.w.q.q.q.q.",
"i.i.i.i.i.i.i.i.y.y.y.u.d.f.f.f.g.g.g.f.p.i.i.u.5.1.1.<.@.o.o.&.B.G.F.F.x.g.h.g.0.7.7.7.7.7.7.7.r.u.u.u.i.i.i.i.u.y.y.y.e.q.q.q.",
"u.u.u.u.u.u.u.u.u.u.u.i.h.j.j.j.j.j.j.h.i.u.u.y.3.<.<.,.+.o.o.&.V.H.G.F.c.j.j.h.9.5.5.5.5.5.5.5.e.u.u.u.u.u.u.u.u.u.u.u.e.q.q.q.",
"u.u.u.u.u.u.u.u.u.u.u.i.h.j.j.j.j.j.j.h.i.u.u.y.3.<.<.,.+.o.o.&.V.H.G.F.c.j.j.h.9.5.5.5.5.5.5.5.e.u.u.u.u.u.u.u.u.u.u.u.e.q.q.q.",
"y.y.y.y.y.y.y.y.y.y.y.u.g.j.j.j.j.j.j.g.u.y.y.t.3.,.,.>.+.o.X.&.B.F.F.D.z.f.g.f.0.7.7.7.7.7.7.7.e.y.y.y.y.y.y.y.y.y.y.y.e.q.q.q.",
"w.w.w.w.w.w.w.w.w.w.q.e.g.j.j.j.j.j.j.g.e.q.w.q.,.-.-.=.o.....$.v.V.V.B.p.w.w.w.t.y.y.y.y.y.y.y.e.q.w.w.w.w.w.w.w.w.w.w.q.q.q.q.",
"q.q.q.q.q.q.q.q.q.q.q.w.g.j.j.j.j.j.j.g.w.q.q.0.>.-.-.=.o.....#.v.B.B.N.i.q.q.q.y.u.u.u.u.u.u.u.e.q.q.q.q.q.q.q.q.q.q.q.q.q.q.q.",
"q.q.q.q.q.q.q.q.q.q.q.w.g.j.j.j.j.j.j.g.w.q.q.0.>.-.-.=.o.....#.v.B.B.N.u.0.q.q.y.u.u.u.u.u.u.u.e.q.q.q.q.q.q.q.q.q.q.q.q.q.q.q.",
"w.w.w.w.w.w.w.w.q.q.q.w.s.f.f.f.f.f.f.s.q.0.0.9.>.-.-.=.O.X.X.$.c.B.B.N.a.r.r.t.i.p.p.p.i.u.u.u.t.r.r.r.w.q.q.q.e.t.r.r.q.0.0.0.",
"u.u.u.u.u.u.u.y.q.q.q.q.w.w.w.w.w.w.w.q.6.5.5.5.:.-.-.=.@.+.O.*.c.N.N.N.l.h.h.h.j.j.j.j.a.u.u.u.f.j.h.h.t.q.q.q.a.j.h.h.w.5.5.5.",
"u.u.u.u.u.u.u.y.q.q.q.q.q.q.q.q.q.q.q.0.5.5.5.4.:.-.-.=.@.+.+.*.c.N.N.N.z.j.j.j.j.j.j.j.a.u.u.u.f.j.j.j.t.q.q.q.a.j.j.j.w.5.5.5.",
"u.u.u.u.u.u.u.y.q.q.q.q.q.q.q.q.q.q.q.0.6.5.5.4.:.-.-.=.@.+.+.*.c.N.N.N.z.j.j.j.j.j.j.j.a.u.u.u.g.j.j.j.t.q.q.q.a.k.j.j.w.5.5.5.",
"r.r.r.r.r.r.r.e.9.9.9.9.9.0.0.9.9.9.9.8.5.5.5.5.,.:.:.;.#.+.+.*.x.M.M.m.j.d.d.d.f.g.g.g.i.t.t.t.a.f.f.d.e.9.0.9.u.d.d.d.0.3.4.4.",
":.:.:.:.:.:.:.:.:.:.:.:.<.1.1.1.>.:.:.,.5.6.6.6.8.9.9.7.%.@.@.*.g.z.z.l.8.<.1.1.9.q.q.q.7.5.5.5.3.3.3.3.1.1.1.1.,.>.>.>.:.;.;.;.",
"-.-.-.-.-.-.-.-.-.-.-.-.,.<.<.,.;.;.;.:.5.6.6.6.9.0.0.8.%.@.@.*.f.l.l.k.5.:.>.>.7.9.9.9.6.4.4.4.1.<.<.<.<.<.<.<.:.-.-.-.-.-.-.-.",
"-.-.-.-.-.-.-.-.-.-.-.;.,.<.<.<.:.;.;.>.5.6.6.7.0.0.0.8.&.@.@.*.g.z.z.l.6.>.>.,.7.9.9.9.6.4.4.4.1.<.<.<.<.<.<.<.:.-.-.-.-.-.-.-.",
"*.*.*.*.*.*.*.*.*.*.*.*.;.:.:.:.=.=.=.-.1.2.2.2.4.4.4.3.$.+.+.%.t.p.p.i.1.-.-.;.3.5.5.5.2.<.<.<.>.:.:.:.:.;.;.:.=.&.*.*.*.*.*.*.",
"O.O.O.O.O.O.O.O.O.O.O.O.O.O.O.O.O.O.O.O.O.O.O.O.o.X.X.X.......X.o.o.o.o.o.o.o.o.@.#.#.#.@.+.+.+.O.O.O.O.X.X.X.X.X.X.X.X.X.X.X.X.",
"O.O.O.O.O.O.O.O.o.o.o.o.o.o.o.o.o.o.o.o.o.o.o.o.........................X.X.X.X.+.@.@.@.+.O.O.O.o.o.o.o.........................",
"+.+.+.+.+.+.+.+.O.O.O.O.O.O.O.O.O.O.O.O.O.O.O.O.X.X.X.X.X.X.X.X.X.X.X.X.o.o.o.o.@.#.#.#.@.+.+.+.O.O.O.O.X.X.X.X.X.X.X.X.X.X.X.X.",
"Q Q Q Q Q Q Q Q W W W W W W W W W W W W W W W W E E E E E E E E E E E E E E E W ! ~ ~ ~ ! Q Q Q W W W W E E E E E E E E E E E E "
};
