/* XPM */
static char *result[] = {
/* columns rows colors chars-per-pixel */
"64 64 35 1 ",
"  c #4C3D26",
". c #504128",
"X c #675232",
"o c #695433",
"O c #6F5A36",
"+ c #705B37",
"@ c #735E39",
"# c #785F3C",
"$ c #76613B",
"% c #7B643D",
"& c #7F683F",
"* c #80683F",
"= c #846B41",
"- c #896F45",
"; c #8C7346",
": c #8F7248",
"> c #907747",
", c #927947",
"< c #92754B",
"1 c #957C49",
"2 c #9A7E4B",
"3 c #9F844D",
"4 c #9F8151",
"5 c #A1854E",
"6 c #A48652",
"7 c #A88754",
"8 c #A68952",
"9 c #AC8B56",
"0 c #AD8C59",
"q c #B08E57",
"w c #B28F59",
"e c #B4915B",
"r c #B8955F",
"t c #BA9761",
"y c #BC9862",
/* pixels */
"yyyr5333333333333335ryyyyyyyeeeq5535eyyyyyyyyyyyyyyyyyyyyyyr8555",
"yytr5333533353533555yyyyyyyyeeeq5555rryyyyyyyyyyyyyyyyyyyyyy8533",
"yytr5333353533335558ryyyyyyrewwq5555ryyyyyyyyyyyyyyyyyyyyyyr5333",
"tttt6656555531335558yyrrrrrrwww95255errrrrrerryrrrrrryryyyyr5335",
"yyyytttteqe9%$$&9wwweeee85555555533355555555weew6558qeeetytt5555",
"yyyyytttqee9$++&qeeeqeew55553552333555555555qeew5555qeeetyyt8552",
"yyyyyyyteee9&+$%9eeeeqew55553555535555355252qeew5335weeetttt5355",
"yytyyyytqqw8&%%=9qqqqqw9855555551,1258557887qeee7888eeeetttr5333",
"ytyyyytr5533333333333333wwewwwe7%@$%0yytttttwweettttyyyyyyyr8555",
"yyyyyttr5533333333333333weewwee8$@@%eyyyyyyytweetyyyyyyyyyyr8552",
"yytyyyyr5333333333333333wewweee8$@@%wyytttyteweetytyyyyyyyyy5555",
"0tteereq32323132333333339qqq9q04$@@%7tterrer00000teteeeeerre5231",
"$##@$$$@$+O$$$%%%$%$%%%%%%*%&%&%@@+$%&&&@@$@@@@@###@@$@#%&&&%%%%",
"XXXoXoXoXoXoO$O$@@$@@@@@@@@@@@+@@@$++@+$oXooooooXXXoooooO$++++$+",
"XXooooooXoooO$$+@@@$@@@@@@@+@@@++$+$$$@+oXoXoooooXooooooO$$+$$$+",
"@@@@OOOOOOOO$%$$%$$$%%%&%%%%$$%%%%&%$$$$+++OoooO+++@@+++$%%%$%%%",
"e0e02322222223322323eeeeeeew3333eeee22222221%@@@6079979999qqwwee",
"yytw4433333333333338ttyyyyyt4338yyyt85553353%@@%7ewweeewwwwetyyy",
"ytyt4333333333353338yyyyyyyr3338ryyt55523333%+@#9weewewweweettyy",
"tttt3333221335553558tttyyyyr3338ryye85665555-%%=9wwwwwwqwwwwrrrt",
"56553333%#$%0ww0wwwweeeetyyr5338eeeewwwwqwww00006555555555557555",
"3333333,#@+%0weeeeeeeweetyyr5335ewweweeeweeeeeww5235535225552555",
"33333333#@+#7eeweeeeweeetyyr5536weeweeeeewwe0et06555255555255525",
"5555533,###*0eweeweweewetyyr5555wewwwqewqqqweee05555555555555555",
"rrrerrr00000eeeertttyytyyyye533585555555=&&=0tytrrertteteerrrerr",
"yyyyyyttyyyyeeeetyytyyyyyyyr433355525552$@@$0yyytyyytttyyyyyyyyy",
"yyyyttttyryyee0ryytyyyyyyyyr33335555555*$@@#0yyyyytytttyyyyyyyyy",
"teterrrrrrtr0000eeereeeewtew32332225*555#@@#7tr00rteeeeteeretere",
"%%&%&&&%@@#@#@@####@#@#####@%%%%%%%%**$$ooOo@####@######%%&%&&&%",
"@@@@@@@+ooXXXXooXXoooooooooo+@@@$+$+*$$+ooooXXXXoooXXXXX@@@@+@@@",
"@@@@@@@+oooXXXXXXooooooooooo@@@@+$+++$++ooXXXXXXXXXoXXXX@@$@@@@@",
"%%%&%%%%@@@@@@@@@@++ooooOOO+%%%%%%*%%$*%@+@@@@@@@@@+@@@@%%%%%$$$",
"eeeeeeereeeeererwee7$++$>333ererweerq999999999q9wweweweeeeew4232",
"yyyyyyyyyyyyryryyyy0$@$$3338ryryyryyeeewwewwwweettyyyyyyyyyt8333",
"ytyyyyyyyyyyyyyryyy0$@@$,335rryyyyyyewweeeqeweeeyyyyyyyyyyyr6333",
"ytyyyyyyyyyyryrryyt0%$$%3339ryyryryrewewqeeqwwwwyyyyryyryyyt5333",
"38888888888888887788q99989qqeerw888885855555****eyyt985888885333",
"33333353333353333336yyyyeeeewewq533355553355*$$$wytr825533535333",
"33333333333333333338ryyreeeeeweq533333533355*$+%wyyr552553335353",
"33835355535335553338yyyreqeqweee535333535555*$$*etyt855535353333",
"ytre000qqqq9qqqqtrrrtytt8585585535333335qqqq8889eeeeqwqqqqqq5535",
"yyyyeeweeeeeeeeeyyyyyytt5333333333333335qeeeeeeeweeweweeeeew5533",
"yyyteeeeweeweeqetyyyyyyt8333333333355355qeeqeeereeweeweeeeee5333",
"yyyteeeewrwweeeeyyyyyytt3333333553333355qeeeeeerweeeeewwqeeq5353",
";;;;****---------=======&%%&&&&&******&******3*******==*=*=*****",
"$O$OoooO@@@@@@@OoooXXXoooXXo$@$@$+@+$$@@$&@++$++oooOoooooooX+@$$",
"O$OOoooo@@@@@@@@oooooooooooo@@@@@@@@@$@@$@@@$+$+oooooooooooOO$+$",
"+$$$OooO@$@@@@@@OoooOoooOooo@$@@$@$@@@@@$$@$$$+$OooooOoooooo++$$",
"78787666777770777664;>,,47643>>,5*2*$@@@3*3*,,,,2222729729292w02",
"yyyyyyyyyyyyyyyyyyyt3433tyyt83335553*@@*35555555eeeyyyyyyyyyyyyy",
"yyyyyyttyyytyyyytyye3338tyyt33335552$+@$33333335weeetyyyyyyyyyyy",
"yyyyytttytttyyyyyyyt8338tyyt83335552*$@*33553335weeettttyyyyyyyy",
"ttee8886===;ryyyyyytererttyt4338wree88889qqq533522578888879wyere",
"w0ww633,@@@%0yyyyyyytytyttye3338ryyyeewwwwww8333295535335622eeee",
"ewew335,#@@%ryyyyyyytyyyyyyt3338ryyreeweeeww5533275535335527wwee",
"wee05332#@@%0yyyytyyyyytyyyt3338ryyyeeeeewew5333922533335222weee",
"ttrrr0r4;;;34800997qyyyyyyyr5338yyyyrrrr8898999qqeeqqewwqqwertrr",
"tytytttr445533335555tyyyyyyr5338ryyyyyyr3333qeeetyryyyyyyyyytyyt",
"tyyytyyr433333332525tyyyyyyr5538yyyyyyyr6333qeqeyyyyyyyyyyytyyty",
"tyyytytr635333335557tyyyyyrr5338ryyyyyyr6333qeeetyyyyyyyyyyyyyyy",
";;;;;;;-======;=*#**=---,,<:&&%&-;;;>*1;==&=====$@@@**-*-*-*>>--",
"@@@@@@@@+@@@%%%$oXXXXXXo%###oXXoO$OO$++$+@@@oXXX.   XooXoooo++@@",
"@@@@@@@@@@@@%%%$OoooXXoo##%#Oooo$O$$$+$+@@#@oooo.   oooooooo@@#+",
"@@@@@@@@@@@@%%%$oooooooO##=#ooooO$+$+$+$@@@+oooX.  .oooooooo+@@@"
};
